<svg xmlns="http://www.w3.org/2000/svg" viewBox="0 0 500 500"><g id="freepik--background-simple--inject-249"><path d="M446.33,145.29s-80.4-115.75-180.78-128C176.94,6.41,94.69,48.79,83.24,140.35,79.16,173,71.9,209.07,59,238.83,44.53,272.21,19.84,300,38.75,364.17s98.77,122.12,156.82,122,112.58-52.89,157.57-100.88S541.4,292.17,446.33,145.29Z" style="fill:#92E3A9"></path><path d="M446.33,145.29s-80.4-115.75-180.78-128C176.94,6.41,94.69,48.79,83.24,140.35,79.16,173,71.9,209.07,59,238.83,44.53,272.21,19.84,300,38.75,364.17s98.77,122.12,156.82,122,112.58-52.89,157.57-100.88S541.4,292.17,446.33,145.29Z" style="fill:#fff;opacity:0.7000000000000001"></path></g><g id="freepik--Floor--inject-249"><line x1="25.74" y1="440.88" x2="484.73" y2="440.88" style="fill:none;stroke:#263238;stroke-miterlimit:10"></line></g><g id="freepik--Window--inject-249"><line x1="347.81" y1="58.43" x2="342.87" y2="61.45" style="fill:none;stroke:#263238;stroke-miterlimit:10"></line><line x1="393.42" y1="30.47" x2="351.45" y2="56.19" style="fill:none;stroke:#263238;stroke-miterlimit:10"></line><line x1="376.3" y1="35.36" x2="325.75" y2="66.34" style="fill:none;stroke:#263238;stroke-miterlimit:10"></line><line x1="209.72" y1="210.88" x2="204.78" y2="213.91" style="fill:none;stroke:#263238;stroke-miterlimit:10"></line><line x1="255.33" y1="182.93" x2="213.36" y2="208.65" style="fill:none;stroke:#263238;stroke-miterlimit:10"></line><line x1="238.21" y1="187.82" x2="187.66" y2="218.8" style="fill:none;stroke:#263238;stroke-miterlimit:10"></line><line x1="417.25" y1="194.12" x2="412.32" y2="197.15" style="fill:none;stroke:#263238;stroke-miterlimit:10"></line><line x1="462.86" y1="166.17" x2="420.9" y2="191.89" style="fill:none;stroke:#263238;stroke-miterlimit:10"></line><line x1="445.74" y1="171.06" x2="395.2" y2="202.04" style="fill:none;stroke:#263238;stroke-miterlimit:10"></line><line x1="112.33" y1="55.23" x2="107.4" y2="58.26" style="fill:none;stroke:#263238;stroke-miterlimit:10"></line><line x1="157.94" y1="27.28" x2="115.98" y2="53" style="fill:none;stroke:#263238;stroke-miterlimit:10"></line><line x1="140.82" y1="32.17" x2="90.28" y2="63.15" style="fill:none;stroke:#263238;stroke-miterlimit:10"></line><line x1="31.45" y1="249.77" x2="480.65" y2="249.77" style="fill:none;stroke:#263238;stroke-miterlimit:10;stroke-width:6px"></line><line x1="432.55" y1="248.96" x2="432.55" y2="23.95" style="fill:none;stroke:#263238;stroke-miterlimit:10;stroke-width:6px"></line><line x1="29" y1="120.96" x2="481.47" y2="120.96" style="fill:none;stroke:#263238;stroke-miterlimit:10;stroke-width:6px"></line><line x1="257.27" y1="248.96" x2="257.27" y2="23.95" style="fill:none;stroke:#263238;stroke-miterlimit:10;stroke-width:6px"></line><line x1="81.99" y1="248.96" x2="81.99" y2="23.95" style="fill:none;stroke:#263238;stroke-miterlimit:10;stroke-width:6px"></line></g><g id="freepik--Plant--inject-249"><path d="M445.32,312.15h0a.11.11,0,0,0-.06-.14.11.11,0,0,0-.14.06,140.38,140.38,0,0,0-7.37,23.12,213.44,213.44,0,0,0-4.07,24l-.58,6.06c-.09,1-.2,2-.27,3l-.17,3c-.08,2-.21,4-.26,6.08l.05,6.09.07,3c0,1,.12,2,.18,3,.16,2,.28,4,.47,6.07.39,4,1,8.05,1.62,12.05a.1.1,0,0,0,.1.09.11.11,0,0,0,.11-.11h0c0-2-.1-4.05-.14-6.07s-.24-4-.21-6.05,0-4-.07-6l-.05-3,.05-3,0-6,.16-6,.07-3c0-1,.11-2,.17-3l.37-6a211.85,211.85,0,0,1,3.41-23.9A139.37,139.37,0,0,1,445.32,312.15Z" style="fill:#263238"></path><path d="M446.18,343.7a.1.1,0,0,0-.06-.13.11.11,0,0,0-.14.07A142,142,0,0,0,441.69,359a143.88,143.88,0,0,0-2.54,15.75c-.54,5.28-1.13,10.56-1.2,15.87a130.27,130.27,0,0,0,.57,15.92.11.11,0,0,0,.09.1.12.12,0,0,0,.12-.1c.61-5.29,1-10.56,1.35-15.83s.43-10.55.77-15.82a157.8,157.8,0,0,1,5.33-31.15Z" style="fill:#263238"></path><path d="M463.67,354.8a.1.1,0,0,0-.14,0A53.36,53.36,0,0,0,451.83,365a46.36,46.36,0,0,0-4.57,6.36l-.94,1.78-.74,1.84a17.92,17.92,0,0,0-.64,1.87c-.19.62-.4,1.25-.57,1.88A75.79,75.79,0,0,0,442,394.12a89.65,89.65,0,0,0,.58,15.54.11.11,0,0,0,.1.09.11.11,0,0,0,.12-.1l1.33-15.38A134.7,134.7,0,0,1,446,379.1c.14-.61.31-1.22.47-1.83a15.73,15.73,0,0,1,.54-1.81l.62-1.78.81-1.68a44.75,44.75,0,0,1,4.19-6.36,52.75,52.75,0,0,1,11-10.69h0A.1.1,0,0,0,463.67,354.8Z" style="fill:#263238"></path><path d="M455.21,374.56a17,17,0,0,0-5.32,6.4,37.62,37.62,0,0,0-3,7.83c-.21.67-.37,1.35-.52,2l-.48,2a34.51,34.51,0,0,0-.52,4.16c0,1.39-.06,2.79,0,4.18a36.24,36.24,0,0,0,.54,4.15.14.14,0,0,0,.09.09.11.11,0,0,0,.13-.09,37,37,0,0,0,.73-4.09c.22-1.35.43-2.7.59-4s.38-2.68.48-4,.29-2.7.58-4a36.51,36.51,0,0,1,2.28-7.75,17.15,17.15,0,0,1,4.47-6.67v0a.11.11,0,0,0,0-.14A.11.11,0,0,0,455.21,374.56Z" style="fill:#263238"></path><path d="M430.68,390c-.58-6.83-1.7-13.59-2.77-20.35s-2.24-13.49-3.48-20.21-2.62-13.43-4.06-20.11a.12.12,0,0,0-.13-.08.11.11,0,0,0-.08.13c1.16,6.73,2.22,13.48,3.22,20.23s2,13.51,2.84,20.29,1.49,13.56,2.34,20.32l2.5,20.33a.09.09,0,0,0,.1.09.1.1,0,0,0,.11-.1c.08-1.71.08-3.42.12-5.14s-.07-3.42-.1-5.14C431.23,396.8,430.94,393.39,430.68,390Z" style="fill:#263238"></path><path d="M426.58,389.87c-.36-2.7-.86-5.39-1.37-8.07l-1-4c-.32-1.33-.61-2.66-1-4A114.7,114.7,0,0,0,418,358.31l-.82-1.88-.91-1.84c-.58-1.23-1.28-2.41-1.94-3.61a30.46,30.46,0,0,0-4.93-6.53.11.11,0,0,0-.15.15h0a30,30,0,0,1,4.51,6.68c.59,1.22,1.22,2.41,1.73,3.67l.8,1.85.71,1.9a111.83,111.83,0,0,1,4.55,15.53c.62,2.63,1,5.31,1.54,8l.64,4c.23,1.33.52,2.65.71,4,.42,2.67.91,5.33,1.38,8s.9,5.36,1.47,8a.11.11,0,0,0,.1.09.11.11,0,0,0,.11-.11q0-4.08-.19-8.18C427.19,395.3,426.87,392.59,426.58,389.87Z" style="fill:#263238"></path><path d="M420.93,390.22c-1.26-3.58-2.73-7.09-4.32-10.53a94.28,94.28,0,0,0-5.44-10,.11.11,0,0,0-.14,0,.1.1,0,0,0,0,.14,92.9,92.9,0,0,1,4.64,10.28c1.39,3.5,2.64,7,3.68,10.64s1.84,7.26,2.79,10.88,1.82,7.25,2.93,10.91a.13.13,0,0,0,.1.08.11.11,0,0,0,.11-.11,54.18,54.18,0,0,0-1.06-11.36A70.71,70.71,0,0,0,420.93,390.22Z" style="fill:#263238"></path><path d="M420.7,402.15a24.5,24.5,0,0,0-3-6.3,26.36,26.36,0,0,0-4.37-5.44,20,20,0,0,0-2.78-2.09,11.26,11.26,0,0,0-3.16-1.43.1.1,0,0,0-.12.06.11.11,0,0,0,.05.14h0a15.68,15.68,0,0,1,5.24,4.07,25.05,25.05,0,0,1,3.65,5.52c1,2,1.57,4.13,2.47,6.15.4,1,.79,2.08,1.25,3.12a26.12,26.12,0,0,0,1.37,3.15h0s.05.05.09.06a.11.11,0,0,0,.11-.11,25.4,25.4,0,0,0-.13-3.49C421.22,404.42,421,403.29,420.7,402.15Z" style="fill:#263238"></path><path d="M421.12,339.08a19.43,19.43,0,0,1-13.77-14.63c-2.58-12.05,5.74-6.89-1.72-25.82s-5.74-23.24-3.16-28.69,4-3.73,6.31,3.44,10.62,18.36,13.78,39.31S421.12,339.08,421.12,339.08Z" style="fill:#92E3A9"></path><path d="M443.21,318.71s-7.46-2.58-7.74-16.64,5.45-11.19,6.31-28.69,2-29.84,5.16-30.12,11.48,8.6,14.35,28.11-3.73,32.42-9.47,38.16S443.21,318.71,443.21,318.71Z" style="fill:#92E3A9"></path><path d="M417.1,356s-1.72-10.33-5.16-15.21-10.9-9.18-15.78-18.65-10.33-14.06-10-.57,6.31,20.37,13.77,25S417.1,356,417.1,356Z" style="fill:#92E3A9"></path><path d="M414,373.79s-6.89-13.19-16.93-23-18.07-14.63-15.2-9.75,6.31,4.59,11.19,13.19,3.44,14.92,10.32,19.8S414,373.79,414,373.79Z" style="fill:#92E3A9"></path><path d="M413.09,390.72c-.29-.86-.58-7.17-10.33-12.34s-18.94-3.15-17.79-.57,7.17,6.89,13.2,9.47S413.09,390.72,413.09,390.72Z" style="fill:#92E3A9"></path><path d="M442.64,356.58s-4.3-5.45-2-16.93,7.46-8.6,13.2-14.63,4.59-6.88,10.33-13.2,10.9-9.75,13.19-7.17-1.14,10.62-4.59,15.21-8.89,6.88-11.47,12.62-1.44,14.92-8,19.22S442.64,356.58,442.64,356.58Z" style="fill:#92E3A9"></path><path d="M457,359.74s10.33-11.77,17.79-20.37,10.33-15.21,10.62-9.47,2.58,10.33-3.45,17.79S457,359.74,457,359.74Z" style="fill:#92E3A9"></path><path d="M451.53,378.67s-.28-4.59,16.07-15.2,23.24-12.63,21.52-8.32-8.9,8.6-16.64,16.35S451.53,378.67,451.53,378.67Z" style="fill:#92E3A9"></path><path d="M421.8,337.86S418,317.28,414,302.64s-6.6-23.52-6.6-23.52" style="fill:none;stroke:#263238;stroke-linecap:round;stroke-linejoin:round"></path><path d="M442.55,318.93s7-22.31,9.27-35.8-.29-23.52-1.44-29.55" style="fill:none;stroke:#263238;stroke-linecap:round;stroke-linejoin:round"></path><path d="M416.2,355.58a108.12,108.12,0,0,0-10.57-15.07c-6.31-7.46-11.19-11.47-14.06-18.64" style="fill:none;stroke:#263238;stroke-linecap:round;stroke-linejoin:round"></path><path d="M442.64,356.58s2.29-13.77,7.74-20.94S466.74,317.28,471,310.1" style="fill:none;stroke:#263238;stroke-linecap:round;stroke-linejoin:round"></path><path d="M412.41,390.41s-9.65-6.29-16.54-9.73" style="fill:none;stroke:#263238;stroke-linecap:round;stroke-linejoin:round"></path><path d="M440.49,451.26H427.86a5.55,5.55,0,0,1-5.12-3.41c-4.12-9.88-15.14-38.42-8.5-46.51,6.32-7.71,33.55-7.71,39.87,0,6.64,8.09-4.38,36.63-8.5,46.51A5.54,5.54,0,0,1,440.49,451.26Z" style="fill:#263238;stroke:#263238;stroke-linecap:round;stroke-linejoin:round"></path></g><g id="freepik--machine-2--inject-249"><rect x="284.5" y="441.74" width="104.71" height="9.52" style="fill:#999;stroke:#263238;stroke-miterlimit:10"></rect><rect x="282.45" y="76.04" width="108.74" height="367.61" style="fill:#999;stroke:#263238;stroke-miterlimit:10"></rect><rect x="282.45" y="205.61" width="108.74" height="14.21" style="fill:#263238;stroke:#263238;stroke-miterlimit:10"></rect><rect x="290.66" y="118" width="92.96" height="55.45" style="fill:#263238;stroke:#263238;stroke-miterlimit:10"></rect><path d="M375.39,220.57H298.53a8,8,0,0,1-8-8V79.77h-8.12V308.88l4.06,4.2s47.07,6.09,99,0l5.68-4.82V79.77h-7.84V212.61A8,8,0,0,1,375.39,220.57Z" style="fill:#263238;stroke:#263238;stroke-miterlimit:10"></path><path d="M375.39,216.83H298.53a8,8,0,0,1-8-8V76h-8.12v229.1l4.06,4.21s47.07,6.08,99,0l5.68-4.82V76h-7.84V208.87A8,8,0,0,1,375.39,216.83Z" style="fill:#fff;stroke:#263238;stroke-miterlimit:10"></path><rect x="303.22" y="123.51" width="66.54" height="45.85" style="fill:#92E3A9;stroke:#263238;stroke-miterlimit:10"></rect><rect x="375.39" y="138.08" width="6.43" height="4.9" style="fill:#fff;stroke:#263238;stroke-miterlimit:10"></rect><rect x="375.39" y="146.81" width="6.43" height="4.9" style="fill:#fff;stroke:#263238;stroke-miterlimit:10"></rect><rect x="375.39" y="155.53" width="6.43" height="4.9" style="fill:#fff;stroke:#263238;stroke-miterlimit:10"></rect><rect x="375.39" y="164.26" width="6.43" height="4.9" style="fill:#fff;stroke:#263238;stroke-miterlimit:10"></rect><rect x="291.61" y="138.08" width="6.43" height="4.9" style="fill:#fff;stroke:#263238;stroke-miterlimit:10"></rect><rect x="291.61" y="146.81" width="6.43" height="4.9" style="fill:#fff;stroke:#263238;stroke-miterlimit:10"></rect><rect x="291.61" y="155.53" width="6.43" height="4.9" style="fill:#fff;stroke:#263238;stroke-miterlimit:10"></rect><rect x="291.61" y="164.26" width="6.43" height="4.9" style="fill:#fff;stroke:#263238;stroke-miterlimit:10"></rect><rect x="311.26" y="234.78" width="50.92" height="7.68" style="fill:#263238;stroke:#263238;stroke-miterlimit:10"></rect><rect x="313.12" y="238.62" width="47.2" height="3.21" style="fill:#999;stroke:#263238;stroke-miterlimit:10"></rect><path d="M324.82,242.45l2.24,21.45a3.48,3.48,0,0,0,3.46,3.12h11.93a3.49,3.49,0,0,0,3.46-3.08l2.45-21.23Z" style="fill:#999;stroke:#263238;stroke-miterlimit:10"></path><polygon points="324.82 242.45 326.37 257.3 346.68 257.3 348.36 242.71 324.82 242.45" style="fill:#263238;stroke:#263238;stroke-miterlimit:10"></polygon><rect x="356.81" y="192.83" width="10.44" height="1.33" style="fill:#263238;stroke:#263238;stroke-miterlimit:10"></rect><polygon points="351.69 188.48 351.69 198.72 356.81 198.72 356.81 194.88 355.02 194.88 355.02 192.83 356.81 192.83 356.81 190.27 366.28 190.27 366.28 192.83 371.65 192.83 371.65 194.88 366.28 194.88 366.28 198.72 376.77 198.72 376.77 188.48 351.69 188.48" style="fill:#696969;stroke:#263238;stroke-miterlimit:10"></polygon><polygon points="351.69 186.42 351.69 196.65 356.81 196.65 356.81 192.81 355.02 192.81 355.02 190.77 356.81 190.77 356.81 188.21 366.28 188.21 366.28 190.77 371.65 190.77 371.65 192.81 366.28 192.81 366.28 196.65 376.77 196.65 376.77 186.42 351.69 186.42" style="fill:#adadad;stroke:#263238;stroke-miterlimit:10"></polygon><rect x="318.17" y="205.48" width="36.37" height="11.42" style="fill:#fff;stroke:#263238;stroke-miterlimit:10"></rect><rect x="316.05" y="203.09" width="2.12" height="13.8" style="fill:#fff;stroke:#263238;stroke-miterlimit:10"></rect><rect x="354.54" y="203.09" width="2.12" height="13.8" style="fill:#fff;stroke:#263238;stroke-miterlimit:10"></rect><rect x="321.17" y="207.33" width="3.62" height="1.65" style="fill:#fff;stroke:#263238;stroke-miterlimit:10"></rect><rect x="326.44" y="207.33" width="3.62" height="1.65" style="fill:#fff;stroke:#263238;stroke-miterlimit:10"></rect><rect x="331.7" y="207.33" width="3.62" height="1.65" style="fill:#fff;stroke:#263238;stroke-miterlimit:10"></rect><rect x="321.17" y="210.29" width="3.62" height="1.65" style="fill:#fff;stroke:#263238;stroke-miterlimit:10"></rect><rect x="326.44" y="210.29" width="3.62" height="1.65" style="fill:#fff;stroke:#263238;stroke-miterlimit:10"></rect><rect x="331.7" y="210.29" width="3.62" height="1.65" style="fill:#fff;stroke:#263238;stroke-miterlimit:10"></rect><rect x="321.17" y="213.25" width="3.62" height="1.65" style="fill:#fff;stroke:#263238;stroke-miterlimit:10"></rect><rect x="326.44" y="213.25" width="3.62" height="1.65" style="fill:#fff;stroke:#263238;stroke-miterlimit:10"></rect><rect x="331.7" y="213.25" width="3.62" height="1.65" style="fill:#fff;stroke:#263238;stroke-miterlimit:10"></rect><rect x="343.86" y="207.91" width="6.68" height="2.72" style="fill:#fff;stroke:#263238;stroke-miterlimit:10"></rect><rect x="343.86" y="211.97" width="6.68" height="2.72" style="fill:#fff;stroke:#263238;stroke-miterlimit:10"></rect><rect x="295.39" y="186.89" width="25.96" height="11.62" style="fill:#adadad;stroke:#263238;stroke-miterlimit:10"></rect><rect x="295.39" y="186.89" width="25.96" height="4.27" style="fill:#adadad;stroke:#263238;stroke-miterlimit:10"></rect><path d="M368.58,219.93l-4.91,54.4a4.67,4.67,0,0,1-3.7,4.16l-1.16.24a118.47,118.47,0,0,1-44.45.77,4.7,4.7,0,0,1-3.86-4.09l-6.18-55.48h-1l-1,.11,6.2,55.59a6.7,6.7,0,0,0,5.5,5.84,120.31,120.31,0,0,0,45.2-.78l1.15-.24a6.65,6.65,0,0,0,5.29-5.94L370.58,220l-1-.09Z" style="fill:#fff;stroke:#263238;stroke-miterlimit:10"></path><rect x="291.3" y="77.14" width="91.05" height="20" style="fill:#263238;stroke:#263238;stroke-miterlimit:10"></rect><rect x="291.3" y="74.87" width="91.05" height="20" style="fill:#a6a6a6;stroke:#263238;stroke-miterlimit:10"></rect><path d="M327.11,264.18a3.47,3.47,0,0,0,3.41,2.84h11.93a3.48,3.48,0,0,0,3.41-2.84Z" style="fill:#263238;stroke:#263238;stroke-miterlimit:10"></path><line x1="282.45" y1="219.82" x2="391.19" y2="219.82" style="fill:none;stroke:#263238;stroke-miterlimit:10"></line><path d="M358.75,89.18l1.88-9.72h2.2l1.87,9.72h-1.84L362.51,87H361l-.37,2.14Zm2.41-3.35h1.16l-.59-3.92Z" style="fill:#fff"></path><path d="M366.1,89.18V80.94h-1.5V79.46h5v1.48h-1.48v8.24Z" style="fill:#fff"></path><path d="M370.37,89.18l.17-9.72h2.1l1.2,6.13,1.29-6.13h2l.17,9.72h-1.44l-.15-6.59-1.24,6.59h-1.24L372,82.54l-.13,6.64Z" style="fill:#fff"></path></g><g id="freepik--machine-1--inject-249"><rect x="112.4" y="441.74" width="104.71" height="9.52" style="fill:#999;stroke:#263238;stroke-miterlimit:10"></rect><rect x="110.36" y="76.04" width="108.74" height="367.61" style="fill:#999;stroke:#263238;stroke-miterlimit:10"></rect><rect x="110.36" y="205.61" width="108.74" height="14.21" style="fill:#263238;stroke:#263238;stroke-miterlimit:10"></rect><rect x="118.56" y="118" width="92.96" height="55.45" style="fill:#263238;stroke:#263238;stroke-miterlimit:10"></rect><path d="M203.29,220.57H126.43a8,8,0,0,1-8-8V79.77h-8.11V308.88l4,4.2s47.07,6.09,99,0l5.68-4.82V79.77h-7.85V212.61A8,8,0,0,1,203.29,220.57Z" style="fill:#263238;stroke:#263238;stroke-miterlimit:10"></path><path d="M203.29,216.83H126.43a8,8,0,0,1-8-8V76h-8.11v229.1l4,4.21s47.07,6.08,99,0l5.68-4.82V76h-7.85V208.87A8,8,0,0,1,203.29,216.83Z" style="fill:#fff;stroke:#263238;stroke-miterlimit:10"></path><rect x="131.12" y="123.51" width="66.54" height="45.85" style="fill:#92E3A9;stroke:#263238;stroke-miterlimit:10"></rect><rect x="203.3" y="138.08" width="6.43" height="4.9" style="fill:#fff;stroke:#263238;stroke-miterlimit:10"></rect><rect x="203.3" y="146.81" width="6.43" height="4.9" style="fill:#fff;stroke:#263238;stroke-miterlimit:10"></rect><rect x="203.3" y="155.53" width="6.43" height="4.9" style="fill:#fff;stroke:#263238;stroke-miterlimit:10"></rect><rect x="203.3" y="164.26" width="6.43" height="4.9" style="fill:#fff;stroke:#263238;stroke-miterlimit:10"></rect><rect x="119.51" y="138.08" width="6.43" height="4.9" style="fill:#fff;stroke:#263238;stroke-miterlimit:10"></rect><rect x="119.51" y="146.81" width="6.43" height="4.9" style="fill:#fff;stroke:#263238;stroke-miterlimit:10"></rect><rect x="119.51" y="155.53" width="6.43" height="4.9" style="fill:#fff;stroke:#263238;stroke-miterlimit:10"></rect><rect x="119.51" y="164.26" width="6.43" height="4.9" style="fill:#fff;stroke:#263238;stroke-miterlimit:10"></rect><rect x="139.17" y="234.78" width="50.92" height="7.68" style="fill:#263238;stroke:#263238;stroke-miterlimit:10"></rect><rect x="141.03" y="238.62" width="47.2" height="3.21" style="fill:#999;stroke:#263238;stroke-miterlimit:10"></rect><path d="M152.73,242.45,155,263.9a3.49,3.49,0,0,0,3.46,3.12h11.93a3.48,3.48,0,0,0,3.46-3.08l2.46-21.23Z" style="fill:#999;stroke:#263238;stroke-miterlimit:10"></path><polygon points="152.73 242.45 154.27 257.3 174.58 257.3 176.27 242.71 152.73 242.45" style="fill:#263238;stroke:#263238;stroke-miterlimit:10"></polygon><rect x="184.71" y="192.83" width="10.44" height="1.33" style="fill:#263238;stroke:#263238;stroke-miterlimit:10"></rect><polygon points="179.59 188.48 179.59 198.72 184.71 198.72 184.71 194.88 182.92 194.88 182.92 192.83 184.71 192.83 184.71 190.27 194.18 190.27 194.18 192.83 199.55 192.83 199.55 194.88 194.18 194.88 194.18 198.72 204.67 198.72 204.67 188.48 179.59 188.48" style="fill:#696969;stroke:#263238;stroke-miterlimit:10"></polygon><polygon points="179.59 186.42 179.59 196.65 184.71 196.65 184.71 192.81 182.92 192.81 182.92 190.77 184.71 190.77 184.71 188.21 194.18 188.21 194.18 190.77 199.55 190.77 199.55 192.81 194.18 192.81 194.18 196.65 204.67 196.65 204.67 186.42 179.59 186.42" style="fill:#adadad;stroke:#263238;stroke-miterlimit:10"></polygon><rect x="146.08" y="205.48" width="36.37" height="11.42" style="fill:#fff;stroke:#263238;stroke-miterlimit:10"></rect><rect x="143.95" y="203.09" width="2.12" height="13.8" style="fill:#fff;stroke:#263238;stroke-miterlimit:10"></rect><rect x="182.45" y="203.09" width="2.12" height="13.8" style="fill:#fff;stroke:#263238;stroke-miterlimit:10"></rect><rect x="149.07" y="207.33" width="3.62" height="1.65" style="fill:#fff;stroke:#263238;stroke-miterlimit:10"></rect><rect x="154.34" y="207.33" width="3.62" height="1.65" style="fill:#fff;stroke:#263238;stroke-miterlimit:10"></rect><rect x="159.61" y="207.33" width="3.62" height="1.65" style="fill:#fff;stroke:#263238;stroke-miterlimit:10"></rect><rect x="149.07" y="210.29" width="3.62" height="1.65" style="fill:#fff;stroke:#263238;stroke-miterlimit:10"></rect><rect x="154.34" y="210.29" width="3.62" height="1.65" style="fill:#fff;stroke:#263238;stroke-miterlimit:10"></rect><rect x="159.61" y="210.29" width="3.62" height="1.65" style="fill:#fff;stroke:#263238;stroke-miterlimit:10"></rect><rect x="149.07" y="213.25" width="3.62" height="1.65" style="fill:#fff;stroke:#263238;stroke-miterlimit:10"></rect><rect x="154.34" y="213.25" width="3.62" height="1.65" style="fill:#fff;stroke:#263238;stroke-miterlimit:10"></rect><rect x="159.61" y="213.25" width="3.62" height="1.65" style="fill:#fff;stroke:#263238;stroke-miterlimit:10"></rect><rect x="171.76" y="207.91" width="6.68" height="2.72" style="fill:#fff;stroke:#263238;stroke-miterlimit:10"></rect><rect x="171.76" y="211.97" width="6.68" height="2.72" style="fill:#fff;stroke:#263238;stroke-miterlimit:10"></rect><rect x="123.3" y="186.89" width="25.96" height="11.62" style="fill:#adadad;stroke:#263238;stroke-miterlimit:10"></rect><rect x="123.3" y="186.89" width="25.96" height="4.27" style="fill:#adadad;stroke:#263238;stroke-miterlimit:10"></rect><path d="M196.48,219.93l-4.91,54.4a4.64,4.64,0,0,1-3.7,4.16l-1.15.24a118.52,118.52,0,0,1-44.46.77,4.69,4.69,0,0,1-3.85-4.09l-6.19-55.48h-1l-1,.11,6.2,55.59a6.71,6.71,0,0,0,5.5,5.84,120.31,120.31,0,0,0,45.2-.78l1.16-.24a6.64,6.64,0,0,0,5.28-5.94L198.48,220l-1-.09Z" style="fill:#fff;stroke:#263238;stroke-miterlimit:10"></path><rect x="119.2" y="77.14" width="91.05" height="20" style="fill:#263238;stroke:#263238;stroke-miterlimit:10"></rect><rect x="119.2" y="74.87" width="91.05" height="20" style="fill:#a6a6a6;stroke:#263238;stroke-miterlimit:10"></rect><path d="M155,264.18a3.46,3.46,0,0,0,3.4,2.84h11.93a3.47,3.47,0,0,0,3.41-2.84Z" style="fill:#263238;stroke:#263238;stroke-miterlimit:10"></path><line x1="110.36" y1="219.82" x2="219.1" y2="219.82" style="fill:none;stroke:#263238;stroke-miterlimit:10"></line><path d="M186.65,89.18l1.88-9.72h2.2l1.87,9.72h-1.84L190.42,87h-1.54l-.37,2.14Zm2.41-3.35h1.16l-.58-3.92Z" style="fill:#fff"></path><path d="M194,89.18V80.94h-1.5V79.46h5v1.48H196v8.24Z" style="fill:#fff"></path><path d="M198.28,89.18l.16-9.72h2.1l1.2,6.13L203,79.46h2l.16,9.72h-1.44l-.15-6.59-1.24,6.59h-1.23l-1.3-6.64-.13,6.64Z" style="fill:#fff"></path></g><g id="freepik--Character--inject-249"><path d="M102.39,442.32s-2.26,1.56-7.83,4.63-11.71,3.9-12.26,5.85,0,5.85,1.39,6.13,17,1.95,27.31,2.51,18.11,1.11,18.95-.56.52-14.2.52-14.2l-24.21-5.31Z" style="fill:#fff;stroke:#263238;stroke-miterlimit:10"></path><path d="M130,460.88a9.79,9.79,0,0,0,.42-2.75c-14.9,1-42.06-1.54-48.19-2.14.2,1.47.72,2.78,1.51,2.94,1.39.28,17,1.95,27.31,2.51S129.11,462.55,130,460.88Z" style="fill:#fff;stroke:#263238;stroke-miterlimit:10"></path><path d="M137.19,443.6s-.83,17,.28,17.84,13.38,1.67,17.28,1.67,18.67-1.67,20.62-4.18,0-4.46-2.23-5.3-9.2-4.46-9.2-4.46l-2.78-8.08Z" style="fill:#fff;stroke:#263238;stroke-miterlimit:10"></path><path d="M137.47,461.44c1.12.83,13.38,1.67,17.28,1.67s18.67-1.67,20.62-4.18a3,3,0,0,0,.73-2.6,65.06,65.06,0,0,1-15.5,2.88c-8.68.51-21.55-1.08-23.66-1.36C137,459.79,137.17,461.21,137.47,461.44Z" style="fill:#fff;stroke:#263238;stroke-miterlimit:10"></path><path d="M85.44,273.35s.73,52.54,3.39,70.45,16,92.47,16,92.47-2.9,1.7-2.42,2.91a6.38,6.38,0,0,1,0,3.14s.24,3.15,9.44,5.09a38.83,38.83,0,0,0,18.64-.73c1.21-.48-.73-1.21,1.94-3.87s4.84-1.94,3.87-8.23-6.05-54-7.5-59.55-5.33-31-5.33-33.89,3.15-46.72,3.15-46.72,7.5,52.28,7.5,63.42-.72,39.46-.72,39.46-3.64,17.67-1.46,27.11,5,21.7,5,21.7a26.35,26.35,0,0,0,11.62,2.66c6.78,0,15.74-2.66,16-5.08s-.73-6.78-.24-8.23,1.06-12,1.06-12,.48-36.07-1-48.66S158.79,349.12,159,347s7.74-59.07,7.74-75.05l-64.87-1.45-16-.73Z" style="fill:#263238;stroke:#263238;stroke-miterlimit:10"></path><path d="M112.63,345.22c1.22,1.61,2.48,3.18,3.77,4.66" style="fill:none;stroke:#fff;stroke-miterlimit:10"></path><path d="M89.52,303.46s7.79,19.47,19.23,36.35" style="fill:none;stroke:#fff;stroke-miterlimit:10"></path><path d="M108.13,381a41.75,41.75,0,0,0,5,6.73" style="fill:none;stroke:#fff;stroke-miterlimit:10"></path><path d="M89.11,329.11s6.67,28.79,16.54,47.55" style="fill:none;stroke:#fff;stroke-miterlimit:10"></path><path d="M143.28,93c-1.42-1.9-4,1.89-4,1.89H99.2s-2.6-3.79-4-1.89-.47,9.7,1.89,13,5.21,1.42,5.21,1.42l2.13,14.2h29.64l2.13-14.2s2.84,1.89,5.21-1.42S144.7,94.85,143.28,93Z" style="fill:#fff;stroke:#263238;stroke-miterlimit:10"></path><path d="M99.68,69.76s-2.13,17.75-.48,25.09S109.38,114,111.28,115s18-.72,18.7-1.43,9.47-15.86,9.47-22.25-2.37-22.25-5-24.62S114.35,53.42,99.68,69.76Z" style="fill:#263238;stroke:#263238;stroke-miterlimit:10"></path><path d="M75.05,286.79s.41,1.69,1,4.16.64,8.61-1.53,9.85-3.52.54-3.21-1.63-.26-5.92-1.5-9.33S67,287.1,67,287.1l1.24,13.31s9,9,7.43,10.22-1.86-.62-7.74-2.48-6.5-.62-8.66-6.81a78.4,78.4,0,0,1-3.1-14.24l16.1-2.48Z" style="fill:none;stroke:#263238;stroke-miterlimit:10"></path><path d="M78.15,145.64S63,153.07,60.81,159.88s-1.85,20.74-.92,25.69-.62,9.6-.31,14.55.31,16.1.31,16.1-6.5,14.55-6.5,17.64a55.91,55.91,0,0,0,.61,8.67c.31,1.24-6.81,19.5-5.88,24.76s6.5,9,6.5,9l1.55,10.83s1.86.93,7.43,1.55,11.45-1.86,11.45-1.86l-.62-12.69s3.72-2.48,4.34-3.71a29.19,29.19,0,0,0,1.24-3.1s0,6.19,3.71,8.36,29.1,9,48.6,9.9,38.69-12.07,41.16-15.78,2.79-9,2.17-15.79S171,228.6,171,227.67s-1.55-11.76-1.55-11.76,11.76,9,15.48,9.9,11.14-3.71,14.54-6.81,3.72-10.83,2.17-16.4a38.6,38.6,0,0,0-2.78-7.74,14.27,14.27,0,0,0-1.24-7.74c-1.86-3.4-4.95-5.57-5.88-6.81s-13.62-19.5-13.62-20.43.93-9-1.86-12.69-18.88-10.83-18.88-10.83-15.95-6.3-28.17-10.53-30.33,3.1-35.6,7.12S78.15,145.64,78.15,145.64Z" style="fill:#92E3A9;stroke:#263238;stroke-miterlimit:10"></path><path d="M79.36,175.1c-.86-3.72-1.52-6.55-1.52-6.55" style="fill:none;stroke:#263238;stroke-miterlimit:10"></path><path d="M80,267.29s-1.86-21.67,0-31.57,4-39.31,3.09-44c-.35-1.73-1.17-5.41-2.06-9.35" style="fill:none;stroke:#263238;stroke-miterlimit:10"></path><path d="M136.34,158.82a54.89,54.89,0,0,0,.62-6.37" style="fill:none;stroke:#263238;stroke-miterlimit:10"></path><path d="M98.74,231.06c8.52-12.79,21.25-32.19,27.7-43.32a81.16,81.16,0,0,0,8.85-23.15" style="fill:none;stroke:#263238;stroke-miterlimit:10"></path><path d="M90.22,243.77l4.46-6.63" style="fill:none;stroke:#263238;stroke-miterlimit:10"></path><path d="M98.58,175.67S97,193.31,88.36,205.07" style="fill:none;stroke:#263238;stroke-miterlimit:10"></path><path d="M171.46,175.76c0,12.27-.41,29-2,40.15" style="fill:none;stroke:#263238;stroke-miterlimit:10"></path><path d="M171.32,159.88s.07,2.88.11,7.45" style="fill:none;stroke:#263238;stroke-miterlimit:10"></path><path d="M58.65,276.27s9.59,1.54,15.78-2.17" style="fill:none;stroke:#263238;stroke-miterlimit:10"></path><path d="M157.39,136.36s-15.79-13-19.81-15.17-19.19-3.09-29.1-1.86S87.12,130.17,85,133s-10.84,15.79-10.22,14.86,21.05-11.76,27.86-14.55,16.41-3.71,27.86-4S157.39,136.36,157.39,136.36Z" style="fill:#92E3A9;stroke:#263238;stroke-miterlimit:10"></path></g></svg>