<?xml version="1.0" encoding="utf-8"?>
<!-- Generator: Adobe Illustrator 27.5.0, SVG Export Plug-In . SVG Version: 6.00 Build 0)  -->
<svg version="1.1" xmlns="http://www.w3.org/2000/svg" xmlns:xlink="http://www.w3.org/1999/xlink" x="0px" y="0px"
	 viewBox="0 0 500 500" style="enable-background:new 0 0 500 500;" xml:space="preserve">
<g id="Background_Complete">
	<g>
		<rect y="382.398" style="fill:#EBEBEB;" width="500" height="0.25"/>
		<rect x="78.545" y="390.788" style="fill:#EBEBEB;" width="33.122" height="0.25"/>
		<rect x="133.333" y="398" style="fill:#EBEBEB;" width="30.167" height="0.25"/>
		<rect x="56.854" y="400.074" style="fill:#EBEBEB;" width="38.251" height="0.25"/>
		<rect x="434" y="399.528" style="fill:#EBEBEB;" width="15.901" height="0.25"/>
		<rect x="391.471" y="399.528" style="fill:#EBEBEB;" width="39.321" height="0.25"/>
		<rect x="250" y="390.663" style="fill:#EBEBEB;" width="30.333" height="0.25"/>
		<rect x="284.667" y="390.663" style="fill:#EBEBEB;" width="72.095" height="0.25"/>
		<path style="fill:#EBEBEB;" d="M237.014,337.8H43.915c-3.147,0-5.708-2.561-5.708-5.708V60.66c0-3.147,2.561-5.708,5.708-5.708
			h193.099c3.146,0,5.707,2.561,5.707,5.708v271.432C242.721,335.239,240.16,337.8,237.014,337.8z M43.915,55.203
			c-3.01,0-5.458,2.448-5.458,5.458v271.432c0,3.01,2.448,5.458,5.458,5.458h193.099c3.009,0,5.457-2.448,5.457-5.458V60.66
			c0-3.009-2.448-5.458-5.457-5.458H43.915z"/>
		<path style="fill:#EBEBEB;" d="M453.31,337.8H260.212c-3.147,0-5.707-2.561-5.707-5.708V60.66c0-3.147,2.561-5.708,5.707-5.708
			H453.31c3.148,0,5.708,2.561,5.708,5.708v271.432C459.019,335.239,456.458,337.8,453.31,337.8z M260.212,55.203
			c-3.009,0-5.457,2.448-5.457,5.458v271.432c0,3.01,2.448,5.458,5.457,5.458H453.31c3.01,0,5.458-2.448,5.458-5.458V60.66
			c0-3.009-2.448-5.458-5.458-5.458H260.212z"/>
	</g>
	<g>
		<g>
			<g>
				<rect x="380.07" y="256.638" style="fill:#E6E6E6;" width="37.254" height="125.76"/>
				<polygon style="fill:#F0F0F0;" points="411.125,382.398 417.325,382.398 417.325,371.082 404.624,371.082 				"/>
				<rect x="228.445" y="256.638" style="fill:#E6E6E6;" width="37.255" height="125.76"/>
				<rect x="260.289" y="256.638" style="fill:#F0F0F0;" width="157.036" height="121.414"/>
				<rect x="265.098" y="262.02" style="fill:#E6E6E6;" width="147.417" height="33.296"/>
				<path style="fill:#F0F0F0;" d="M345.77,272.367h-13.926c-6.049,0-11.832-4.108-15.993-11.36l0,0h45.912l0,0
					C357.602,268.259,351.819,272.367,345.77,272.367z"/>
				<polygon style="fill:#F0F0F0;" points="266.488,382.398 260.289,382.398 260.289,371.082 272.989,371.082 				"/>
				<rect x="265.098" y="300.698" style="fill:#E6E6E6;" width="147.417" height="33.296"/>
				<path style="fill:#F0F0F0;" d="M345.77,311.045h-13.926c-6.049,0-11.832-4.108-15.993-11.36l0,0h45.912l0,0
					C357.602,306.937,351.819,311.045,345.77,311.045z"/>
				<rect x="265.098" y="339.375" style="fill:#E6E6E6;" width="147.417" height="33.296"/>
				<path style="fill:#F0F0F0;" d="M345.77,349.722h-13.926c-6.049,0-11.832-4.108-15.993-11.36l0,0h45.912l0,0
					C357.602,345.615,351.819,349.722,345.77,349.722z"/>
			</g>
		</g>
		<g>
			<rect x="273.434" y="93.55" style="fill:#F0F0F0;" width="160.86" height="78.083"/>
			<rect x="276.142" y="93.55" style="fill:#F5F5F5;" width="163.947" height="78.083"/>
			
				<rect x="325.569" y="58.731" transform="matrix(-1.836970e-16 1 -1 -1.836970e-16 490.7069 -225.5242)" style="fill:#FFFFFF;" width="65.094" height="147.721"/>
		</g>
		<g>
			<g>
				<path style="fill:#F0F0F0;" d="M385.557,229.059c2.899-30.036,4.917-78.774,3.35-95.076c-0.054-0.566-0.355-1.076-0.814-1.411
					l0,0c-1.351-0.985-3.244,0.009-3.187,1.68c0.277,8.077,0.593,28.265-1.126,63.093c-0.856,17.336-2.09,29.209-1.243,31.714
					H385.557z"/>
				<path style="fill:#F0F0F0;" d="M393.868,164.458c6.625-8.522,20.318-15.26,34.358-16.29c5.512-0.404-16.629,10.587-25.742,21.56
					c-7.079,8.524-14.993,22.563-17.641,30.223C386.393,184.136,387.244,172.98,393.868,164.458z"/>
				<path style="fill:#F0F0F0;" d="M380.003,162.622c-6.854-9.546-22.677-16.887-39.796-17.717
					c-6.721-0.326,18.85,11.654,28.392,23.931c7.413,9.538,15.014,25.336,17.106,33.998
					C386.206,184.856,386.857,172.168,380.003,162.622z"/>
				<path style="fill:#F0F0F0;" d="M393.415,136.38c5.228-7.113,16.773-12.951,29.011-14.145c4.804-0.469-13.858,9.049-21.1,18.223
					c-5.626,7.126-11.61,18.768-13.41,25.079C388.199,152.608,388.187,143.493,393.415,136.38z"/>
				<path style="fill:#F0F0F0;" d="M382.878,137.836c-5.804-8.084-19.202-14.299-33.698-15.002
					c-5.691-0.276,15.962,9.868,24.042,20.264c6.277,8.076,12.713,21.454,14.485,28.789
					C388.131,156.664,388.682,145.92,382.878,137.836z"/>
				<path style="fill:#F0F0F0;" d="M389.902,196.54c3.776-5.364,12.265-9.875,21.338-10.947c3.562-0.421-10.158,6.932-15.4,13.857
					c-4.072,5.379-8.341,14.118-9.583,18.834C386.272,208.674,386.125,201.903,389.902,196.54z"/>
				<path style="fill:#F0F0F0;" d="M383.038,193.521c-3.279-5.321-11.398-9.808-20.449-10.889
					c-3.553-0.424,9.564,6.888,14.167,13.759c3.576,5.337,7.017,14.003,7.802,18.677
					C385.496,205.549,386.316,198.842,383.038,193.521z"/>
			</g>
			<g>
				<path style="fill:#E6E6E6;" d="M384.334,256.638L384.334,256.638c7.224,0,13.194-1.509,13.609-8.721l1.204-20.863h-29.625
					l1.204,20.863C371.14,255.129,377.11,256.638,384.334,256.638z"/>
				<path style="fill:#F0F0F0;" d="M369.69,231.796h29.288c1.188,0,2.186-0.894,2.316-2.075l0.444-4.02
					c0.152-1.38-0.928-2.586-2.316-2.586h-30.176c-1.388,0-2.469,1.206-2.316,2.586l0.444,4.02
					C367.504,230.902,368.502,231.796,369.69,231.796z"/>
			</g>
		</g>
		<g>
			<polygon style="fill:#E6E6E6;" points="275.251,256.638 255.597,256.638 261.419,213.57 275.251,213.57 			"/>
			<polygon style="fill:#F0F0F0;" points="304.089,256.638 266.847,256.638 259.914,206.23 297.156,206.23 			"/>
			<polygon style="fill:#F5F5F5;" points="309.061,256.638 270.307,256.638 263.375,206.23 302.129,206.23 			"/>
			<polygon style="fill:#FFFFFF;" points="273.734,252.666 267.893,210.202 298.702,210.202 304.543,252.666 			"/>
			<path style="fill:#F5F5F5;" d="M291.099,242.873h-7.343c-1.315,0-2.441-0.982-2.62-2.284L278.717,223
				c-0.104-0.757,0.124-1.521,0.626-2.098c0.502-0.577,1.229-0.907,1.994-0.907h7.343c1.315,0,2.441,0.982,2.62,2.284l2.419,17.589
				c0.104,0.757-0.124,1.521-0.626,2.098C292.59,242.543,291.864,242.873,291.099,242.873z M282.126,240.452
				c0.112,0.811,0.812,1.421,1.63,1.421h7.343c0.476,0,0.928-0.206,1.24-0.564c0.312-0.357,0.454-0.833,0.39-1.304l-2.419-17.589
				c-0.112-0.811-0.812-1.421-1.63-1.421h-7.343c-0.476,0-0.928,0.206-1.24,0.564c-0.312,0.357-0.454,0.833-0.39,1.304
				L282.126,240.452z"/>
		</g>
		<g>
			<g>
				<rect x="63.124" y="91.251" style="fill:#E6E6E6;" width="148.384" height="156.582"/>
				<path style="fill:#E6E6E6;" d="M227.409,86.183H53.519c-0.814,0-1.473,0.66-1.473,1.473l0,0c0,0.813,0.66,1.473,1.473,1.473
					h173.891c0.814,0,1.473-0.66,1.473-1.473l0,0C228.882,86.843,228.223,86.183,227.409,86.183z"/>
				<rect x="66.066" y="91.251" style="fill:#F0F0F0;" width="151.738" height="156.582"/>
				
					<rect x="72.459" y="102.487" transform="matrix(-1.836970e-16 1 -1 -1.836970e-16 311.4764 27.6068)" style="fill:#FAFAFA;" width="138.952" height="134.109"/>
				<polygon style="fill:#FFFFFF;" points="105.324,239.018 157.06,100.065 181.483,100.065 129.747,239.018 				"/>
				<polygon style="fill:#FFFFFF;" points="134.993,239.018 186.729,100.065 196.251,100.065 144.514,239.018 				"/>
				
					<rect x="138.953" y="168.982" transform="matrix(-1.836970e-16 1 -1 -1.836970e-16 377.9711 -38.8878)" style="fill:#E6E6E6;" width="138.952" height="1.119"/>
			</g>
			<g style="opacity:0.6;">
				<polygon style="fill:#F0F0F0;" points="71.241,308.067 52.608,308.067 55.564,83.547 74.196,83.547 				"/>
				<polygon style="fill:#E6E6E6;" points="78.499,308.067 63.982,308.067 66.938,83.547 81.454,83.547 				"/>
				<polygon style="fill:#F0F0F0;" points="89.873,308.067 71.241,308.067 74.196,83.547 92.828,83.547 				"/>
				<polygon style="fill:#E6E6E6;" points="97.131,308.067 82.615,308.067 85.57,83.547 100.087,83.547 				"/>
				<polygon style="fill:#F0F0F0;" points="108.505,308.067 89.873,308.067 92.828,83.547 111.461,83.547 				"/>
			</g>
			<g style="opacity:0.6;">
				<polygon style="fill:#F0F0F0;" points="214.732,308.067 225.262,308.067 226.674,83.548 216.144,83.548 				"/>
				<polygon style="fill:#E6E6E6;" points="210.631,308.067 218.834,308.067 220.246,83.548 212.042,83.548 				"/>
				<polygon style="fill:#F0F0F0;" points="204.203,308.067 214.732,308.067 216.144,83.548 205.614,83.548 				"/>
				<polygon style="fill:#E6E6E6;" points="200.101,308.067 208.304,308.067 209.716,83.548 201.512,83.548 				"/>
				<polygon style="fill:#F0F0F0;" points="193.673,308.067 204.203,308.067 205.614,83.548 195.084,83.548 				"/>
			</g>
		</g>
	</g>
</g>
<g id="Background_Simple" style="display:none;">
	<g style="display:inline;">
		<path style="fill:#407BFF;" d="M72.44,134.154c10.939-24.723,35.299-41.065,66.3-45.269c30.47-4.132,52.842,24.306,86.699,37.418
			c27.484,10.644,54.222,8.665,81.612,18.339c26.128,9.228,51.501,27.056,69.019,49.783c22.815,29.6,26.578,59.195,22.877,87.133
			c-2.291,17.292-5.977,33.557-15.131,47.109c-20.269,30.007-61.153,38.076-106.512,17.444
			c-17.341-7.888-33.922-18.494-50.276-29.214c-40.725-26.7-80.924-54.418-121.349-81.687c-7.293-4.919-14.719-9.951-20.713-16.344
			c-9.744-10.391-14.584-23.209-16.93-35.13C64.34,164.963,66.223,148.205,72.44,134.154z"/>
		<path style="opacity:0.9;fill:#FFFFFF;" d="M72.44,134.154c10.939-24.723,35.299-41.065,66.3-45.269
			c30.47-4.132,52.842,24.306,86.699,37.418c27.484,10.644,54.222,8.665,81.612,18.339c26.128,9.228,51.501,27.056,69.019,49.783
			c22.815,29.6,26.578,59.195,22.877,87.133c-2.291,17.292-5.977,33.557-15.131,47.109c-20.269,30.007-61.153,38.076-106.512,17.444
			c-17.341-7.888-33.922-18.494-50.276-29.214c-40.725-26.7-80.924-54.418-121.349-81.687c-7.293-4.919-14.719-9.951-20.713-16.344
			c-9.744-10.391-14.584-23.209-16.93-35.13C64.34,164.963,66.223,148.205,72.44,134.154z"/>
	</g>
</g>
<g id="Shadow_1_">
	<ellipse id="_x3C_Path_x3E__256_" style="fill:#F5F5F5;" cx="250" cy="416.238" rx="193.889" ry="11.323"/>
</g>
<g id="Character_1_">
	<g>
		<g>
			<path style="fill:#263238;" d="M284.623,118.792c-6.03-8.125-4.609-15.211-0.025-20.313c5.753-6.403,15.144-6.348,21.403-3.082
				c9.794,5.109,11.91,27.499-4.457,30.664C291.371,122.442,284.623,118.792,284.623,118.792z"/>
			<path style="fill:#263238;" d="M304.115,96.809c5.981-3.531,4.324-10.377,9.749-13.976c7.538-5,23.789-2.833,18.706,9.667
				c-5.083,12.5,13.042,13.218,7.75,25.64c-5.292,12.422-20.5,20.027-24.417,2.027c-2.935-13.489,9.522-30.868-0.53-29
				c-6.277,1.167-8.361,7.611-8.361,7.611L304.115,96.809z"/>
			<path style="fill:#B55B52;" d="M289.203,149.746c-0.822,2.278-1.713,4.338-2.663,6.465c-0.935,2.114-1.995,4.175-3.103,6.229
				c-2.243,4.1-4.706,8.133-8.269,11.854c-0.905,0.923-1.891,1.825-3.068,2.655c-1.152,0.807-2.308,1.439-3.476,1.969
				c-2.33,1.06-4.648,1.781-6.966,2.323c-4.647,1.08-9.202,1.535-13.901,1.506c-1.196-0.007-2.16-0.983-2.152-2.179
				c0.006-1.014,0.708-1.86,1.649-2.09l0.097-0.023c4.169-1.02,8.425-2.228,12.328-3.717c1.95-0.756,3.836-1.588,5.481-2.564
				c0.815-0.491,1.588-0.997,2.22-1.532c0.619-0.499,1.252-1.147,1.862-1.861c1.229-1.418,2.393-3.101,3.469-4.859
				c1.076-1.768,2.117-3.606,3.076-5.509c1.901-3.784,3.702-7.819,5.255-11.698l0.026-0.064c0.893-2.231,3.426-3.316,5.658-2.422
				C288.909,145.102,289.991,147.552,289.203,149.746z"/>
			<path style="fill:#263238;" d="M287.897,142.345c-8.258,0.948-12.808,13.337-12.808,13.337l8.457,11.917
				c0,0,10.04-11.331,10.875-16.388C295.291,145.948,294.015,141.643,287.897,142.345z"/>
			<path style="opacity:0.2;" d="M283.379,149.929c2.77-1.736,5.79-0.784,8.363,2.454c0.496,0.828,0.843,1.852,1.045,3.007
				c-2.495,4.531-9.243,12.208-9.243,12.208l-3.871-5.452C279.375,158.921,281.592,151.041,283.379,149.929z"/>
			<path style="fill:#B55B52;" d="M249.229,179.001l-6.19-3.362l-0.165,8.125c0,0,4.152,0.898,6.909-1.321L249.229,179.001z"/>
			<polygon style="fill:#B55B52;" points="236.751,175.919 237.844,182.548 242.874,183.763 243.039,175.639 			"/>
			<g>
				<g>
					<g>
						<path style="fill:#407BFF;" d="M268.151,161.31l-5.465-4.477l-37.2,55.888l5.465,4.477
							c6.275,5.141,19.689-3.202,29.962-18.635S274.426,166.451,268.151,161.31z"/>
						<path style="opacity:0.1;" d="M268.151,161.31l-5.465-4.478l-37.2,55.888l5.465,4.477c6.275,5.141,19.689-3.202,29.962-18.635
							C271.185,183.13,274.426,166.451,268.151,161.31z"/>
					</g>
					
						<ellipse transform="matrix(0.5346 -0.8451 0.8451 0.5346 -42.5621 292.2617)" style="fill:#407BFF;" cx="244.086" cy="184.776" rx="33.607" ry="14.599"/>
					<g>
						<path style="fill:#FFFFFF;" d="M237.195,193.94l5.019-7.541c-0.509-1.455-0.533-3.046-0.074-4.774
							c0.46-1.727,1.337-3.563,2.631-5.506c1.31-1.968,2.662-3.413,4.058-4.337c1.395-0.924,2.58-1.145,3.555-0.661l1.212-1.821
							l1.061,0.869l-1.212,1.821c0.624,0.863,0.808,2.02,0.551,3.469c-0.256,1.449-0.92,3.126-1.991,5.03l-2.246-0.923
							c0.83-1.507,1.176-2.707,1.038-3.599l-4.684,7.037c0.652,1.74,0.777,3.404,0.374,4.993c-0.402,1.589-1.25,3.356-2.544,5.3
							c-1.445,2.172-2.93,3.782-4.455,4.832c-1.524,1.05-2.874,1.354-4.049,0.91l-1.212,1.821l-1.061-0.869l1.152-1.731
							c-0.676-0.943-0.847-2.279-0.511-4.006c0.335-1.728,1.217-3.833,2.644-6.316l2.245,1.061
							c-0.561,1.024-0.966,1.972-1.214,2.843C237.235,192.713,237.139,193.413,237.195,193.94z M249.773,175.044
							c-0.448,0.004-0.949,0.224-1.503,0.66c-0.554,0.436-1.063,1.002-1.526,1.698c-0.423,0.636-0.738,1.291-0.946,1.964
							c-0.208,0.674-0.264,1.309-0.171,1.905L249.773,175.044z M238.088,195.061c0.478,0.132,1.053-0.041,1.725-0.519
							c0.673-0.478,1.308-1.167,1.907-2.067c0.535-0.804,0.9-1.576,1.095-2.315c0.194-0.74,0.176-1.445-0.055-2.117L238.088,195.061
							z"/>
					</g>
					<path style="opacity:0.1;" d="M261.055,175.379c0.739-4.902,0.031-8.827-2.324-10.758c-5.111-4.188-16.038,2.609-24.406,15.18
						c-3.852,5.787-6.49,11.789-7.716,16.992c0.862-5.738,3.709-12.815,8.224-19.599c8.367-12.571,19.294-19.368,24.405-15.18
						C261.997,164.275,262.496,169.276,261.055,175.379z"/>
				</g>
			</g>
			<polygon style="fill:#B55B52;" points="333.552,361.809 325.154,362.613 320.874,343.041 329.272,342.237 			"/>
			<polygon style="fill:#B55B52;" points="380.336,349.709 372.534,352.767 365.004,334.21 372.806,331.152 			"/>
			<path style="fill:#263238;" d="M370.258,348.93l8.563-4.259c0.312-0.155,0.672-0.064,0.867,0.218l4.345,6.29
				c0.451,0.652,0.177,1.618-0.548,1.963c-3.011,1.434-4.319,2.152-8.085,4.025c-2.317,1.152-7.49,3.863-10.689,5.454
				c-3.129,1.556-4.943-1.487-3.753-2.437c5.334-4.256,7.087-7.462,8.258-10.153C369.428,349.547,369.802,349.156,370.258,348.93z"
				/>
			<path style="fill:#263238;" d="M323.509,358.246h10.099c0.368,0,0.699,0.255,0.798,0.614l2.196,7.99
				c0.228,0.829-0.382,1.613-1.232,1.599c-3.529-0.061-5.221,0.017-9.663,0.017c-2.732,0-9.783,0-13.555,0
				c-3.69,0-4.505-3.731-2.978-4.069c6.846-1.515,10.793-3.604,12.905-5.598C322.459,358.44,322.971,358.246,323.509,358.246z"/>
			<polygon style="opacity:0.2;" points="320.876,343.046 323.081,353.134 331.659,353.134 329.279,342.242 			"/>
			<polygon style="opacity:0.2;" points="372.81,331.156 365.004,334.216 368.89,343.779 376.695,340.72 			"/>
			<path style="fill:#263238;" d="M313.541,133.903c6.679-0.776,11.052,2.404,11.302,9.077c0.881,23.509,3.476,28.923,7.406,41.077
				l-33.307,9.272c-11.841-25.634-15.979-37.732-17.322-43.419c-0.645-2.731,0.782-5.352,3.216-6.747
				C287.933,141.386,298.679,135.63,313.541,133.903z"/>
			<path style="fill:#B55B52;" d="M303.406,118.14c0.401,5.132,1.732,14.053,6.041,16.353c0,0-0.628,3.163-11.664,13.738
				c-6.808-5.743-3.33-9.592-3.33-9.592c5.066-2.807,3.873-6.468,1.875-9.986L303.406,118.14z"/>
			<path style="opacity:0.2;" d="M302.638,119.286c0.333,1.457,1.086,4.79,0.303,8.916c-0.381,2.034-2.561,3.52-4.996,4.39
				c-0.264-1.32-0.89-2.659-1.613-3.94L302.638,119.286z"/>
			<path style="fill:#B55B52;" d="M305.367,108.452c1.635,8.289,2.503,11.763-0.521,17.028c-4.549,7.921-15.087,8.116-19.166,0.482
				c-3.671-6.871-5.727-19.272,1.408-24.609C294.119,96.096,303.733,100.163,305.367,108.452z"/>
			<path style="fill:#B55B52;" d="M309.701,113.496c0.275,1.73-0.275,3.425-1.139,4.576c-1.3,1.731-3.262,0.886-4-1.028
				c-0.664-1.723-0.788-4.7,1.045-5.748C307.413,110.263,309.387,111.518,309.701,113.496z"/>
			<path style="fill:#263238;" d="M298.095,104.056c-0.306,3.178,2.236,8.592,7,9.85c4.944-5.677,1.686-13.461-2.852-13.628
				C297.706,100.111,298.095,104.056,298.095,104.056z"/>
			<path style="fill:#263238;" d="M291.445,95.417c-7.294,0.334-15.113,3.583-12.405,15c6.361-1.328,24.056-3.306,25.422-7.849
				C302.672,96.737,296.215,95.198,291.445,95.417z"/>
			<g>
				<path style="fill:#407BFF;" d="M298.942,193.329c0,0-1.922,67.286,3.469,92.687c5.607,26.42,18.277,64.184,18.277,64.184
					l11.899-0.771c0,0-7.681-49.365-10.047-69.734c-3.262-28.082,0.793-93.155,0.793-93.155L298.942,193.329z"/>
				<path style="opacity:0.2;" d="M315.704,214.372c0.536-6.103,5.135-4.936,6.166,3.325c-0.453,12.992-0.768,28.091-0.509,41.305
					C316.396,249.311,314.465,228.251,315.704,214.372z"/>
			</g>
			<polygon style="fill:#263238;" points="334.1,350.181 319.773,351.15 317.782,344.431 333.285,342.789 			"/>
			<path style="fill:#407BFF;" d="M310.69,190.058c0,0,10.142,56.402,23.912,86.749c11.122,24.512,31.271,64,31.271,64l10.93-4.084
				c0,0-17.095-44.83-23.268-62.078c-15.393-43.004-7.018-69.097-21.285-90.589L310.69,190.058z"/>
			<polygon style="fill:#263238;" points="378.092,337.763 365.475,342.148 361.886,335.693 376.896,331.969 			"/>
			<path style="fill:#263238;" d="M332.204,181.963l2.332,2.563c0.181,0.199-0.027,0.511-0.412,0.618l-34.93,9.724
				c-0.3,0.084-0.59,0.006-0.661-0.178l-1.13-2.898c-0.078-0.201,0.133-0.448,0.462-0.539l33.728-9.389
				C331.84,181.795,332.087,181.835,332.204,181.963z"/>
			<path style="fill:#407BFF;" d="M328.724,186.995l0.903-0.252c0.18-0.05,0.291-0.181,0.247-0.291l-1.502-3.756
				c-0.044-0.11-0.227-0.159-0.407-0.109l-0.903,0.251c-0.18,0.05-0.291,0.181-0.247,0.291l1.502,3.755
				C328.361,186.997,328.544,187.046,328.724,186.995z"/>
			<path style="fill:#407BFF;" d="M301.822,194.485l0.903-0.252c0.18-0.05,0.291-0.181,0.247-0.291l-1.502-3.755
				c-0.044-0.11-0.227-0.159-0.407-0.109l-0.903,0.252c-0.18,0.05-0.291,0.181-0.247,0.291l1.502,3.755
				C301.459,194.486,301.642,194.535,301.822,194.485z"/>
			<path style="fill:#407BFF;" d="M315.273,190.74l0.903-0.252c0.18-0.05,0.291-0.181,0.247-0.291l-1.502-3.756
				c-0.044-0.11-0.227-0.159-0.407-0.109l-0.903,0.251c-0.18,0.05-0.291,0.181-0.247,0.291l1.502,3.755
				C314.91,190.741,315.093,190.79,315.273,190.74z"/>
			<path style="fill:#263238;" d="M293.59,113.971c0.174,0.664-0.037,1.295-0.471,1.409s-0.927-0.333-1.101-0.997
				c-0.174-0.664,0.037-1.295,0.471-1.409C292.923,112.861,293.416,113.307,293.59,113.971z"/>
			<path style="fill:#263238;" d="M286.082,115.937c0.174,0.664-0.037,1.295-0.471,1.409c-0.434,0.114-0.927-0.333-1.101-0.997
				c-0.174-0.664,0.037-1.295,0.471-1.409C285.415,114.826,285.908,115.273,286.082,115.937z"/>
			<path style="fill:#263238;" d="M285.183,114.926l-1.716-0.042C283.467,114.884,284.612,115.916,285.183,114.926z"/>
			<path style="fill:#A02724;" d="M288.365,116.559c0,0-0.379,3.155-1.258,4.859c1.091,0.589,2.484-0.175,2.484-0.175
				L288.365,116.559z"/>
			<path style="fill:#263238;" d="M292.534,123.251c-0.078-0.011-0.145-0.068-0.166-0.149c-0.028-0.107,0.036-0.218,0.144-0.246
				c2.907-0.761,3.743-3.156,3.752-3.18c0.035-0.105,0.146-0.163,0.255-0.127c0.106,0.035,0.163,0.149,0.127,0.255
				c-0.035,0.107-0.906,2.624-4.032,3.443C292.587,123.254,292.56,123.255,292.534,123.251z"/>
			<path style="fill:#263238;" d="M295.058,110.967c-0.068-0.01-0.133-0.037-0.191-0.082c-1.412-1.112-2.825-0.653-2.84-0.648
				c-0.211,0.072-0.44-0.043-0.511-0.253c-0.071-0.211,0.042-0.44,0.253-0.511c0.074-0.025,1.844-0.601,3.597,0.779
				c0.175,0.138,0.205,0.392,0.067,0.566C295.341,110.935,295.196,110.987,295.058,110.967z"/>
			<path style="fill:#263238;" d="M281.608,113.379c-0.025-0.004-0.049-0.009-0.074-0.018c-0.211-0.073-0.322-0.302-0.25-0.513
				c0.726-2.109,2.526-2.584,2.603-2.603c0.216-0.054,0.435,0.077,0.489,0.293c0.054,0.215-0.077,0.434-0.292,0.489
				c-0.067,0.018-1.46,0.405-2.038,2.084C281.983,113.297,281.796,113.406,281.608,113.379z"/>
			<path style="fill:#B55B52;" d="M320.746,149.637c-2.592,5.367-5.3,10.624-8.143,15.855c-1.418,2.615-2.837,5.233-4.356,7.817
				c-1.507,2.594-3.031,5.169-4.784,7.76c-0.411,0.639-0.92,1.316-1.398,1.977l-0.181,0.248l-0.095,0.129l-0.153,0.189
				c-0.207,0.261-0.413,0.479-0.622,0.695c-0.413,0.411-0.828,0.772-1.23,1.074c-1.616,1.223-3.15,1.927-4.665,2.586
				c-3.02,1.271-5.986,2.094-8.956,2.822c-5.953,1.374-11.84,2.294-17.865,2.786l-0.684-4.257c2.793-0.738,5.635-1.515,8.421-2.327
				c2.797-0.793,5.561-1.67,8.259-2.615c2.691-0.934,5.347-1.966,7.696-3.157c1.153-0.592,2.251-1.275,2.951-1.89
				c0.18-0.152,0.307-0.294,0.41-0.411c0.041-0.055,0.086-0.109,0.101-0.142l0.216-0.332c0.355-0.558,0.714-1.076,1.069-1.698
				c1.424-2.385,2.824-4.941,4.181-7.509l4.054-7.766l7.966-15.685L320.746,149.637z"/>
			<path style="fill:#B55B52;" d="M270.325,189.378l-5.895-2.263l0.5,8.31c0,0,4.629-0.022,6.767-2.842L270.325,189.378z"/>
			<polygon style="fill:#B55B52;" points="259.797,187.358 258.54,193.472 264.929,195.426 264.429,187.115 			"/>
			<path style="fill:#263238;" d="M313.496,138.2c-3.29,1.51-7.104,15.18-7.104,15.18l14.251,1.652c0,0,2.755-6.642,2.199-10.049
				C321.946,139.499,317.251,136.477,313.496,138.2z"/>
			<path style="fill:#407BFF;" d="M366.018,351.373c-0.052-0.09-0.096-0.189-0.133-0.3c-0.109-0.326-0.002-0.553,0.107-0.686
				c0.688-0.842,3.745-0.5,4.092-0.458c0.08,0.01,0.146,0.065,0.169,0.143c0.023,0.078-0.003,0.161-0.064,0.212
				c-0.871,0.724-2.488,1.895-3.527,1.599C366.385,351.805,366.169,351.634,366.018,351.373z M369.548,350.281
				c-1.227-0.101-2.882-0.081-3.244,0.362c-0.046,0.056-0.091,0.141-0.037,0.303c0.101,0.302,0.265,0.482,0.504,0.55
				C367.332,351.656,368.353,351.205,369.548,350.281z"/>
			<path style="fill:#407BFF;" d="M366.754,348.606c-0.044-0.075-0.076-0.151-0.097-0.226c-0.049-0.181-0.068-0.526,0.357-0.806
				c0.27-0.177,0.567-0.224,0.884-0.139c1.194,0.322,2.296,2.511,2.342,2.604c0.032,0.064,0.027,0.141-0.012,0.2
				c-0.039,0.06-0.108,0.095-0.179,0.091C369.19,350.284,367.256,349.472,366.754,348.606z M369.659,349.816
				c-0.414-0.713-1.174-1.805-1.866-1.991c-0.204-0.055-0.386-0.027-0.557,0.086c-0.217,0.142-0.216,0.269-0.19,0.363
				c0.155,0.573,1.634,1.38,2.647,1.599C369.682,349.855,369.671,349.836,369.659,349.816z"/>
			<path style="fill:#407BFF;" d="M319.029,359.913c-0.78,0-1.507-0.121-1.972-0.472c-0.317-0.24-0.489-0.566-0.513-0.97
				c-0.017-0.3,0.129-0.464,0.254-0.549c0.915-0.621,4.355,0.942,5.035,1.261c0.078,0.037,0.124,0.119,0.115,0.205
				c-0.009,0.086-0.073,0.156-0.157,0.175C321.059,359.726,320.003,359.913,319.029,359.913z M317.421,358.171
				c-0.173,0-0.309,0.026-0.396,0.086c-0.042,0.028-0.083,0.073-0.076,0.192c0.016,0.285,0.132,0.504,0.353,0.671
				c0.592,0.448,1.988,0.507,3.796,0.173C319.855,358.753,318.232,358.171,317.421,358.171z"/>
			<path style="fill:#407BFF;" d="M321.749,359.568c-0.026,0-0.052-0.005-0.076-0.015c-1.14-0.466-3.438-2.309-3.31-3.262
				c0.028-0.209,0.171-0.47,0.69-0.533c1.997-0.24,2.857,3.408,2.892,3.563c0.017,0.073-0.009,0.15-0.066,0.198
				C321.842,359.551,321.796,359.568,321.749,359.568z M319.237,356.15c-0.045,0-0.09,0.003-0.136,0.008
				c-0.211,0.025-0.326,0.088-0.339,0.186c-0.075,0.553,1.513,2.009,2.675,2.646C321.172,358.111,320.445,356.15,319.237,356.15z"/>
			<path style="fill:#263238;" d="M292.691,112.961l-1.716-0.042C290.975,112.919,292.12,113.951,292.691,112.961z"/>
		</g>
		<g>
			<path style="fill:#263238;" d="M352.757,374.5h-57.551v-4.617c0-0.783,0.635-1.418,1.418-1.418h54.715
				c0.783,0,1.418,0.635,1.418,1.418V374.5z"/>
			<rect x="295.699" y="389.799" style="fill:#263238;" width="57.551" height="6.035"/>
			<rect x="315.201" y="389.799" style="opacity:0.5;" width="38.049" height="6.035"/>
			<path style="fill:#263238;" d="M320.743,374.5l-6.476,40.544c-0.11,0.688-0.703,1.194-1.4,1.194h-3.163
				c-0.872,0-1.538-0.78-1.4-1.642l6.404-40.096H320.743z"/>
			<polygon style="opacity:0.5;" points="320.741,374.501 320.249,377.584 314.214,377.584 314.707,374.501 			"/>
			<path style="fill:#263238;" d="M301.241,374.5l-6.476,40.544c-0.11,0.688-0.703,1.194-1.4,1.194h-3.163
				c-0.872,0-1.538-0.78-1.4-1.642l6.404-40.096H301.241z"/>
			<path style="fill:#263238;" d="M359.162,414.596l-6.404-40.096h-6.035l6.476,40.544c0.11,0.688,0.703,1.194,1.4,1.194h3.163
				C358.634,416.238,359.299,415.458,359.162,414.596z"/>
			<polygon style="opacity:0.5;" points="353.25,377.583 352.757,374.5 346.723,374.5 347.215,377.583 			"/>
			<g>
				<path style="fill:#263238;" d="M339.66,414.596l-6.404-40.096h-6.035l6.476,40.544c0.11,0.688,0.703,1.194,1.4,1.194h3.163
					C339.132,416.238,339.797,415.458,339.66,414.596z"/>
				<path style="opacity:0.5;" d="M339.66,414.596l-6.404-40.096h-6.035l6.476,40.544c0.11,0.688,0.703,1.194,1.4,1.194h3.163
					C339.132,416.238,339.797,415.458,339.66,414.596z"/>
			</g>
			<path style="opacity:0.5;" d="M352.757,374.5h-38.049v-6.035h36.632c0.783,0,1.418,0.635,1.418,1.418V374.5z"/>
		</g>
	</g>
</g>
<g id="Piggy_Bank">
	<g>
		<g>
			<polygon style="fill:#407BFF;" points="145.776,410.728 153.794,396.029 125.144,370.922 122.897,410.728 			"/>
			<polygon style="opacity:0.1;" points="145.776,410.728 153.794,396.029 125.144,370.922 122.897,410.728 			"/>
		</g>
		<path style="fill:#407BFF;" d="M244.522,243.224c16.069-11,29.528-9.871,34.003-6.667c4.476,3.203-9.735,27.589-9.735,27.589
			S252.439,260.425,244.522,243.224z"/>
		<path style="opacity:0.2;" d="M252.174,254.274c9.044-8.889,18.273-11.743,20.777-10.254c2.503,1.49-5.532,18.626-5.532,18.626
			S256.573,264.208,252.174,254.274z"/>
		<path style="fill:#407BFF;" d="M104.893,277.704l-0.913-0.463c2.485-4.897,5.455-9.629,8.827-14.064l0.815,0.619
			C110.288,268.183,107.351,272.862,104.893,277.704z"/>
		<path style="fill:#407BFF;" d="M100.125,288.983l-0.969-0.332c0.763-2.229,1.628-4.457,2.568-6.619l0.939,0.408
			C101.734,284.578,100.88,286.779,100.125,288.983z"/>
		<path style="fill:#407BFF;" d="M287.107,316.751c0,49.647-37.376,89.894-91.336,89.894s-97.704-40.247-97.704-89.894
			c0-49.647,43.743-89.894,97.704-89.894S287.107,267.104,287.107,316.751z"/>
		<path style="opacity:0.1;" d="M182.75,397.119l-3.91,8.179c2.831,0.46,5.696,0.798,8.606,1.022L182.75,397.119z"/>
		<polygon style="fill:#407BFF;" points="176.832,416.238 188.066,396.029 152.116,382.891 147.519,416.238 		"/>
		<polygon style="fill:#407BFF;" points="229.193,416.238 219.454,396.029 253.678,382.891 255.951,416.238 		"/>
		<g>
			<path style="opacity:0.2;" d="M253.778,329.74c0,13.436-11.883,24.327-26.486,24.327c-14.603,0-26.441-10.892-26.441-24.327
				s11.838-24.327,26.441-24.327C241.895,305.413,253.778,316.305,253.778,329.74z"/>
			<ellipse style="opacity:0.2;" cx="218.514" cy="329.34" rx="4.494" ry="8.363"/>
			<path style="opacity:0.4;" d="M186.399,284.357c1.291,3.934,0.104,8.219-2.65,9.57c-2.754,1.351-6.033-0.743-7.324-4.678
				c-1.291-3.934-0.105-8.219,2.65-9.57C181.829,278.328,185.108,280.422,186.399,284.357z"/>
			<path style="opacity:0.4;" d="M256.04,284.536c-0.981,3.934,0.232,8.171,2.708,9.462c2.476,1.292,5.279-0.85,6.26-4.785
				c0.981-3.934-0.232-8.171-2.708-9.462C259.823,278.46,257.021,280.602,256.04,284.536z"/>
			<ellipse style="opacity:0.2;" cx="242.399" cy="329.34" rx="4.494" ry="8.363"/>
		</g>
		<path style="fill:#407BFF;" d="M167.21,242.398c-17.413-14.417-32.954-15.541-38.384-12.92c-5.43,2.621,8.613,30.895,8.613,30.895
			S156.538,259.25,167.21,242.398z"/>
		<path style="opacity:0.2;" d="M157.411,252.782c-9.551-10.972-19.873-15.585-22.882-14.439
			c-3.009,1.146,4.622,20.679,4.622,20.679S151.446,262.544,157.411,252.782z"/>
		<path style="opacity:0.4;" d="M202.366,234.677h14.713c0,0-3.203-3.517-14.058-4.587c-9.369-0.923-18.397,1.001-18.397,1.001
			S196.74,230.822,202.366,234.677z"/>
	</g>
</g>
</svg>
