<?xml version="1.0" encoding="utf-8"?>
<!-- Generator: Adobe Illustrator 27.5.0, SVG Export Plug-In . SVG Version: 6.00 Build 0)  -->
<svg version="1.1" xmlns="http://www.w3.org/2000/svg" xmlns:xlink="http://www.w3.org/1999/xlink" x="0px" y="0px"
	 viewBox="0 0 500 500" style="enable-background:new 0 0 500 500;" xml:space="preserve">
<g id="Background_Complete">
	<g>
		<rect y="382.398" style="fill:#EBEBEB;" width="500" height="0.25"/>
		<rect x="416.779" y="398.494" style="fill:#EBEBEB;" width="33.122" height="0.25"/>
		<rect x="322.527" y="401.208" style="fill:#EBEBEB;" width="8.693" height="0.25"/>
		<rect x="396.586" y="389.208" style="fill:#EBEBEB;" width="19.192" height="0.25"/>
		<rect x="52.459" y="390.888" style="fill:#EBEBEB;" width="43.193" height="0.25"/>
		<rect x="104.556" y="390.888" style="fill:#EBEBEB;" width="6.333" height="0.25"/>
		<rect x="131.471" y="395.111" style="fill:#EBEBEB;" width="93.676" height="0.25"/>
		<path style="fill:#EBEBEB;" d="M237.014,337.8H43.915c-3.147,0-5.708-2.561-5.708-5.708V60.66c0-3.147,2.561-5.708,5.708-5.708
			h193.099c3.146,0,5.707,2.561,5.707,5.708v271.432C242.721,335.239,240.16,337.8,237.014,337.8z M43.915,55.203
			c-3.01,0-5.458,2.448-5.458,5.458v271.432c0,3.01,2.448,5.458,5.458,5.458h193.099c3.009,0,5.457-2.448,5.457-5.458V60.66
			c0-3.009-2.448-5.458-5.457-5.458H43.915z"/>
		<path style="fill:#EBEBEB;" d="M453.31,337.8H260.212c-3.147,0-5.707-2.561-5.707-5.708V60.66c0-3.147,2.561-5.708,5.707-5.708
			H453.31c3.148,0,5.708,2.561,5.708,5.708v271.432C459.019,335.239,456.458,337.8,453.31,337.8z M260.212,55.203
			c-3.009,0-5.457,2.448-5.457,5.458v271.432c0,3.01,2.448,5.458,5.457,5.458H453.31c3.01,0,5.458-2.448,5.458-5.458V60.66
			c0-3.009-2.448-5.458-5.458-5.458H260.212z"/>
	</g>
	<g>
		<polygon style="fill:#EBEBEB;" points="441.857,381.128 441.857,331.815 419.097,331.815 419.097,286.082 415.887,286.082 
			415.887,312.295 407.133,312.295 407.133,305.045 391.376,305.045 391.376,279.947 388.458,279.947 388.458,249.272 
			386.124,249.272 386.124,279.389 380.58,279.389 380.58,324.007 370.075,324.007 370.075,279.389 351.109,279.389 
			351.109,317.122 331.197,317.122 331.197,271.389 327.987,271.389 327.987,297.602 319.233,297.602 319.233,290.351 
			303.477,290.351 303.477,265.254 300.559,265.254 300.559,234.579 298.224,234.579 298.224,264.696 292.68,264.696 
			292.68,309.314 282.176,309.314 282.176,264.696 263.209,264.696 263.209,307.855 250.419,307.855 250.419,282.757 
			247.501,282.757 247.501,252.082 245.166,252.082 245.166,282.199 239.622,282.199 239.622,326.817 229.117,326.817 
			229.117,282.199 210.151,282.199 210.151,326.817 200.814,326.817 200.814,331.815 184.456,331.815 184.456,286.082 
			181.246,286.082 181.246,312.295 172.492,312.295 172.492,305.045 156.736,305.045 156.736,279.947 153.817,279.947 
			153.817,249.272 151.483,249.272 151.483,279.389 146.395,279.389 146.395,276.878 127.428,276.878 127.428,279.389 
			116.924,279.389 116.924,276.878 111.38,276.878 111.38,246.761 109.045,246.761 109.045,277.436 106.127,277.436 
			106.127,302.533 90.37,302.533 90.37,309.784 81.616,309.784 81.616,283.571 78.407,283.571 78.407,329.304 55.647,329.304 
			55.647,381.128 		"/>
		
			<ellipse transform="matrix(0.9239 -0.3827 0.3827 0.9239 -37.7184 62.3636)" style="fill:#FAFAFA;" cx="137.902" cy="125.993" rx="27.787" ry="27.787"/>
		<path style="fill:#F0F0F0;" d="M123.487,125.68c0-2.668-2.163-4.83-4.83-4.83c-0.482,0-0.947,0.073-1.387,0.204
			c0.07-0.484,0.108-0.979,0.108-1.483c0-5.649-4.58-10.229-10.229-10.229c-0.644,0-1.273,0.063-1.884,0.176
			c-1.572-2.573-4.399-4.296-7.634-4.296c-4.898,0-8.871,3.935-8.944,8.816c-0.05-0.001-0.099-0.007-0.149-0.007
			c-4.551,0-8.24,3.689-8.24,8.24c0,4.551,3.689,8.24,8.24,8.24h30.261l-0.006-0.007
			C121.397,130.431,123.487,128.302,123.487,125.68z"/>
		<path style="fill:#F0F0F0;" d="M427.776,192.606c0-2.668-2.163-4.83-4.83-4.83c-0.482,0-0.947,0.073-1.387,0.204
			c0.07-0.484,0.108-0.979,0.108-1.483c0-5.649-4.58-10.229-10.229-10.229c-0.644,0-1.273,0.062-1.884,0.176
			c-1.572-2.573-4.398-4.296-7.634-4.296c-4.898,0-8.871,3.935-8.944,8.816c-0.05-0.001-0.099-0.008-0.149-0.008
			c-4.551,0-8.24,3.689-8.24,8.24c0,4.551,3.689,8.24,8.24,8.24h30.26l-0.006-0.007
			C425.686,197.357,427.776,195.228,427.776,192.606z"/>
		<path style="fill:#F0F0F0;" d="M284.71,119.247c0-4.221,3.422-7.643,7.643-7.643c0.763,0,1.499,0.115,2.194,0.324
			c-0.111-0.767-0.172-1.549-0.172-2.347c0-8.938,7.246-16.184,16.184-16.184c1.019,0,2.014,0.099,2.981,0.279
			c2.487-4.071,6.959-6.798,12.079-6.798c7.749,0,14.035,6.227,14.151,13.949c0.079-0.002,0.156-0.012,0.236-0.012
			c7.2,0,13.037,5.837,13.037,13.037c0,7.201-5.837,13.038-13.037,13.038h-47.879l0.01-0.011
			C288.017,126.764,284.71,123.396,284.71,119.247z"/>
		<path style="fill:#F0F0F0;" d="M143.478,202.467c0-5.079,4.118-9.197,9.197-9.197c0.919,0,1.804,0.139,2.641,0.389
			c-0.134-0.922-0.206-1.864-0.206-2.824c0-10.757,8.72-19.477,19.477-19.477c1.226,0,2.424,0.119,3.588,0.336
			c2.994-4.899,8.375-8.18,14.536-8.18c9.326,0,16.891,7.493,17.029,16.786c0.095-0.002,0.188-0.014,0.284-0.014
			c8.665,0,15.689,7.024,15.689,15.689c0,8.665-7.024,15.689-15.689,15.689l-57.618,0l0.012-0.013
			C147.458,211.514,143.478,207.46,143.478,202.467z"/>
		<path style="fill:#F0F0F0;" d="M184.096,140.152c0-1.659-1.345-3.003-3.003-3.003c-0.3,0-0.589,0.045-0.862,0.127
			c0.044-0.301,0.067-0.609,0.067-0.922c0-3.512-2.847-6.36-6.359-6.36c-0.4,0-0.792,0.039-1.171,0.11
			c-0.977-1.6-2.734-2.671-4.746-2.671c-3.045,0-5.515,2.447-5.56,5.481c-0.031-0.001-0.061-0.005-0.093-0.005
			c-2.829,0-5.123,2.294-5.123,5.123c0,2.829,2.294,5.123,5.123,5.123h18.813l-0.004-0.004
			C182.797,143.105,184.096,141.782,184.096,140.152z"/>
		<path style="fill:#F0F0F0;" d="M74.72,231.35c0-1.659,1.345-3.003,3.003-3.003c0.3,0,0.589,0.045,0.862,0.127
			c-0.044-0.301-0.067-0.609-0.067-0.922c0-3.512,2.847-6.359,6.359-6.359c0.4,0,0.792,0.039,1.172,0.109
			c0.977-1.6,2.734-2.671,4.746-2.671c3.045,0,5.515,2.447,5.56,5.481c0.031-0.001,0.061-0.005,0.093-0.005
			c2.829,0,5.123,2.294,5.123,5.123c0,2.829-2.294,5.123-5.123,5.123H77.635l0.004-0.004C76.02,234.304,74.72,232.98,74.72,231.35z"
			/>
		<path style="fill:#F0F0F0;" d="M356.21,241.15c0-1.659,1.345-3.003,3.003-3.003c0.3,0,0.589,0.045,0.862,0.127
			c-0.044-0.301-0.067-0.609-0.067-0.922c0-3.512,2.847-6.359,6.359-6.359c0.4,0,0.792,0.039,1.171,0.109
			c0.977-1.6,2.734-2.671,4.746-2.671c3.045,0,5.515,2.447,5.56,5.481c0.031-0.001,0.061-0.005,0.093-0.005
			c2.829,0,5.123,2.294,5.123,5.123c0,2.829-2.293,5.123-5.123,5.123l-18.813,0l0.004-0.004
			C357.509,244.103,356.21,242.78,356.21,241.15z"/>
	</g>
</g>
<g id="Background_Simple" style="display:none;">
	<g style="display:inline;">
		<path style="fill:#407BFF;" d="M83.918,114.605c27.919-59.449,127.059-51.062,165.317-9.255
			c38.258,41.806,50.696,68.599,85.208,52.983c34.512-15.616,78.518-11.44,81.042,38.164s-37.913,108.263-102.09,125.615
			c-64.177,17.352-64.161,78.759-149.1,66.368c-46.31-6.756-47.365-56.86-40.825-98.301S51.54,183.549,83.918,114.605z"/>
		<path style="opacity:0.9;fill:#FFFFFF;" d="M83.918,114.605c27.919-59.449,127.059-51.062,165.317-9.255
			c38.258,41.806,50.696,68.599,85.208,52.983c34.512-15.616,78.518-11.44,81.042,38.164s-37.913,108.263-102.09,125.615
			c-64.177,17.352-64.161,78.759-149.1,66.368c-46.31-6.756-47.365-56.86-40.825-98.301S51.54,183.549,83.918,114.605z"/>
	</g>
</g>
<g id="Shadow_1_">
	<ellipse id="_x3C_Path_x3E__359_" style="fill:#F5F5F5;" cx="250" cy="416.238" rx="193.889" ry="11.323"/>
</g>
<g id="Arrow">
	<g>
		<polygon style="fill:#263238;" points="388.803,121.03 346.048,186.123 344.168,188.985 340.449,190.714 208.125,252.204 
			221.204,296.988 224.195,307.228 213.828,315.791 124.556,402.536 50.692,402.536 184.249,291.622 176.159,247.577 
			173.956,235.589 184.298,230.827 325.323,165.898 371.255,109.082 358.926,106.644 397.661,90.572 395.673,132.463 		"/>
		<polygon style="opacity:0.6;fill:#FAFAFA;" points="388.803,121.03 346.048,186.123 344.168,188.985 340.449,190.714 
			208.125,252.204 221.204,296.988 224.195,307.228 213.828,315.791 124.556,402.536 50.692,402.536 184.249,291.622 
			176.159,247.577 173.956,235.589 184.298,230.827 325.323,165.898 371.255,109.082 358.926,106.644 397.661,90.572 
			395.673,132.463 		"/>
	</g>
</g>
<g id="Character_2">
	<g>
		<polygon style="fill:#FFC2BC;enable-background:new    ;" points="250.08,256.31 247.84,260.69 245.56,265.14 241.57,263.68 
			243.57,259.77 246.09,254.85 		"/>
		<polygon style="opacity:0.2;" points="250.08,256.31 247.84,260.69 243.57,259.77 246.09,254.85 		"/>
		<path style="fill:none;stroke:#263238;stroke-linecap:round;stroke-linejoin:round;stroke-miterlimit:10;" d="M337.221,231.04
			c0,0-13.097-98.579-29.165-142.095"/>
		<polygon style="fill:#FFC2BC;enable-background:new    ;" points="311.9,228.721 316.155,228.549 316.979,218.689 
			312.724,218.861 		"/>
		<path style="fill:#263238;" d="M316.554,226.298l-4.648-0.143c-0.174-0.005-0.329,0.11-0.374,0.278l-0.991,3.74
			c-0.103,0.388,0.18,0.767,0.582,0.772c1.678,0.023,4.105,0,6.212,0.065c2.464,0.076,4.032-0.039,6.922,0.05
			c1.747,0.054,2.303-1.69,1.578-1.871c-3.301-0.828-5.461-0.675-8.268-2.53C317.261,226.458,316.922,226.31,316.554,226.298z"/>
		<polygon style="opacity:0.2;" points="316.978,218.691 316.554,223.774 312.297,223.946 312.721,218.864 		"/>
		<path style="fill:#263238;" d="M310.17,192.989c1.082,2.067,1.159,23.769,1.161,29.285h7.354
			c0.941-5.712,5.65-36.378-0.975-40.755c-7.32-4.83-25.88-3.17-25.88-3.17l-1.34-2.71l-2.68-5.4l-15.39,5.72l-3.35,1.24l-1.38,0.52
			l-0.12,0.04c0,0,0.01,0.15,0.04,0.41v0.01c0.05,0.6,0.19,1.81,0.44,3.32c0.26,1.58,0.65,3.49,1.22,5.36
			c1.42,4.63,3.94,9.01,8.32,7.54c0.19-0.06,0.38-0.14,0.57-0.22c0.36-0.16,0.75-0.31,1.15-0.46c2.92-1.05,6.8-1.74,10.82-2.13
			C299.37,190.699,309.35,191.399,310.17,192.989z"/>
		<polygon style="fill:#407BFF;" points="319.007,222.922 310.417,223.147 310.369,220.383 319.809,219.992 		"/>
		<path style="fill:#263238;" d="M246.302,263.007h-5.18c-0.174,0-0.325,0.121-0.365,0.29l-0.877,3.777
			c-0.091,0.392,0.213,0.763,0.615,0.756c1.667-0.029,2.884-0.126,4.984-0.126c1.292,0,5.185,0.134,6.969,0.134
			c1.744,0,2.034-1.764,1.306-1.923c-3.267-0.716-5.724-1.704-6.763-2.646C246.802,263.098,246.556,263.007,246.302,263.007z"/>
		<g>
			<path style="fill:#263238;" d="M283.98,177.719c0,0-0.33,1.14-0.89,3.07c-0.47,1.64-1.12,3.87-1.88,6.46
				c-0.58,1.97-1.22,4.16-1.9,6.47c-3.24,10.95-7.36,24.62-9.64,31.11c-4.54,12.88-19.73,35.79-19.73,35.79l-7.31-2.68
				c0,0,11.22-21.58,14.9-34.64c2.57-9.12,6.6-25.51,9.25-36.52c0.47-1.95,0.9-3.74,1.27-5.28c0.43-1.8,0.78-3.27,1.02-4.3
				c0.26-1.08,0.4-1.69,0.4-1.69l2.95,0.45L283.98,177.719z"/>
		</g>
		<polygon style="fill:#407BFF;" points="250.755,261.099 242.15,257.945 243.118,255.384 252.291,258.157 		"/>
		<path style="opacity:0.2;" d="M290.49,175.639l-6.51,7.57l-0.89-2.42l-0.97-2.64l-0.91,9.1l-11.94-0.39l-2.49-0.08
			c0.47-1.95,0.9-3.74,1.27-5.28c-0.25-1.51-0.39-2.72-0.44-3.32v-0.01l0.08-0.45l1.38-0.52c0.26-1.08,0.4-1.69,0.4-1.69l2.95,0.45
			l15.39-5.72L290.49,175.639z"/>
		<path style="opacity:0.2;" d="M290.13,191.589c-4.57,0.44-8.96,1.28-11.97,2.59c-0.19,0.08-0.38,0.16-0.57,0.22l0.87-4.28
			C278.46,190.119,285.92,189.769,290.13,191.589z"/>
		<g>
			<path style="fill:#FFC2BC;enable-background:new    ;" d="M234.279,179.751l-2.607,3.459l-2.214-4.264
				c0,0,2.513-2.945,3.976-1.587L234.279,179.751z"/>
			<polygon style="fill:#FFC2BC;enable-background:new    ;" points="227.684,184.792 227.025,180.48 229.458,178.946 
				231.671,183.21 			"/>
		</g>
		<polygon style="fill:#FFFFFF;" points="234.995,179.428 234.264,179.798 233.181,177.064 234.339,176.501 		"/>
		<path style="fill:#263238;" d="M264.1,154.459c-0.38,0.65-0.77,1.29-1.17,1.92c-1.01,1.64-2.06,3.25-3.16,4.84
			c-0.3,0.44-0.6,0.87-0.91,1.31c-0.92,1.32-1.89,2.61-2.93,3.9c-0.52,0.64-1.05,1.29-1.64,1.93c-0.57,0.65-1.24,1.32-1.89,1.9
			c-2.65,2.33-5.49,4.02-8.38,5.53c-2.91,1.5-5.85,2.77-8.95,3.82l-1.3-2.92c1.3-0.79,2.65-1.6,3.94-2.44
			c1.31-0.82,2.6-1.67,3.85-2.55c1.25-0.88,2.48-1.77,3.64-2.7c1.18-0.91,2.26-1.91,3.24-2.89c1.83-1.87,3.47-4.61,5.17-7.14
			c1.67-2.59,3.78-7.13,5.43-9.72L264.1,154.459z"/>
		<path style="opacity:0.2;" d="M262.93,156.379c-1.01,1.64-2.06,3.25-3.16,4.84c0-3,1.71-5.99,1.71-5.99
			C262.17,155.489,262.63,155.889,262.93,156.379z"/>
		<path style="fill:#FFC2BC;enable-background:new    ;" d="M320.27,143.686l-2.903,2.703l0.416,2.503
			c1.059,1.4,3.496-0.335,4.069-0.774c0.09-0.069,0.186-0.122,0.29-0.165l1.536-0.627c0.561-0.229,0.89-0.815,0.793-1.413
			l-0.298-1.838c-0.118-0.731-0.822-1.215-1.547-1.066l-1.732,0.356C320.661,143.412,320.445,143.524,320.27,143.686z"/>
		<polygon style="fill:#FFFFFF;" points="316.703,146.406 317.497,146.205 317.956,149.109 316.703,149.406 		"/>
		<path style="fill:#263238;" d="M317.37,149.429c-3.2,0.69-6.38,1.09-9.64,1.3c-3.26,0.19-6.56,0.19-10.03-0.46
			c-0.86-0.17-1.78-0.39-2.6-0.66c-0.84-0.26-1.62-0.54-2.4-0.83c-1.55-0.57-3.04-1.18-4.51-1.85c-0.59-0.26-1.18-0.53-1.77-0.8
			c-1.34-0.62-2.66-1.26-3.98-1.93c-0.97-0.48-1.93-0.99-2.89-1.52l2.57-6.11c2.75,1.38,5.99,3.25,8.76,4.62
			c2.75,1.31,5.56,2.82,8.09,3.48c1.35,0.35,2.78,0.65,4.26,0.83c1.48,0.21,2.99,0.34,4.51,0.46c1.53,0.12,3.07,0.19,4.61,0.21
			c1.54,0.07,3.12,0.07,4.64,0.09L317.37,149.429z"/>
		<path style="opacity:0.2;" d="M286.42,146.129c-1.34-0.62-2.66-1.26-3.98-1.93l-0.52-2.84
			C281.92,141.359,284.75,142.589,286.42,146.129z"/>
		<g>
			<path style="fill:#407BFF;" d="M259.884,148.701c1.69,4.044,2.959,8.37,3.938,12.54c0.714,3.052,3.268,6.023,3.706,8.747
				c1.088,6.753,1.302,6.842,1.797,9.025c3.053-1.639,12.28-3.669,18.477-7.001c0.254-24.921-6.433-34.638-6.433-34.638
				s-2.338,0.558-5.013,1.608c-0.352,0.136-0.71,0.286-1.072,0.444c-2.344,1.018-6.115,3.141-8.707,4.678
				c-0.545,0.324-1.094,0.666-1.627,1.009C262.239,146.863,259.884,148.701,259.884,148.701z"/>
			<path style="opacity:0.7;fill:#FFFFFF;" d="M259.884,148.701c1.69,4.044,2.959,8.37,3.938,12.54
				c0.714,3.052,3.268,6.023,3.706,8.747c1.088,6.753,1.302,6.842,1.797,9.025c3.053-1.639,12.28-3.669,18.477-7.001
				c0.254-24.921-6.433-34.638-6.433-34.638s-2.338,0.558-5.013,1.608c-0.352,0.136-0.71,0.286-1.072,0.444
				c-2.344,1.018-6.115,3.141-8.707,4.678c-0.545,0.324-1.094,0.666-1.627,1.009C262.239,146.863,259.884,148.701,259.884,148.701z"
				/>
		</g>
		<polygon style="fill:#407BFF;" points="276.274,148.229 276.646,145.921 275.064,145.816 274.092,146.89 		"/>
		<path style="fill:#FFC2BC;enable-background:new    ;" d="M275.06,145.82c-2.94,1.64-5.85-0.27-7.73-1.58
			c-0.07-0.05-0.13-0.09-0.2-0.14c0.83-1.15,0.91-2.96,0.64-4.86c-0.29-2.17-1.03-4.46-1.64-6.02l6.73,3.86
			c-0.03,0.46-0.08,0.87-0.1,1.23c-0.09,0.87-0.1,1.46,0.38,1.84c0.4,0.32,1.13,0.49,2.45,0.55
			C276.36,141.61,277.08,144.69,275.06,145.82z"/>
		<path style="fill:#263238;" d="M264.951,145.113c0,0,8.472,8.832,14.667,13.65c0,0-0.455-15.633-3.262-19.781l5.765-2.416
			c0,0,5.538,12.246,6.33,32.685l2.505,5.143l-6.978,7.121l-2.253-5.275l-1.484,8.736l-14.44,1.286l1.772-10.022l-8.531-26.994
			L264.951,145.113z"/>
		<path style="fill:#407BFF;" d="M275.511,147.76c0,0,1.994,6.821,1.862,10.464l2.572,1.335l0.461-1.978
			c0,0-2.266-8.792-4.352-10.335L275.511,147.76z"/>
		<path style="fill:#263238;" d="M265.305,144.378c0,0,10.574,11.611,14.313,14.385c0,0-1.089-15.725-3.521-19.679
			c0,0,1.669-1.148,5.233,2.326l-1.78,3.302l3.165,2.181c0,0-1.088,11.775-3.165,17.363c0,0,0.247-1.83,0.198-3.56l-12.412-6.874
			l0.553-3.808l-4.689-0.198C263.199,149.818,263.72,145.334,265.305,144.378z"/>
		<path style="opacity:0.2;fill:#FFFFFF;" d="M265.305,144.378c0,0,10.574,11.611,14.313,14.385c0,0-1.089-15.725-3.521-19.679
			c0,0,1.669-1.148,5.233,2.326l-1.78,3.302l3.165,2.181c0,0-1.088,11.775-3.165,17.363c0,0,0.247-1.83,0.198-3.56l-12.412-6.874
			l0.553-3.808l-4.689-0.198C263.199,149.818,263.72,145.334,265.305,144.378z"/>
		<path style="fill:#407BFF;" d="M308.375,89.818c0,0-5.979-0.676-9.342,0.907c-3.363,1.582-6.725,6.725-12.165,7.22
			c-5.44,0.495-6.527-1.286-6.527-1.286s4.793,8.506,14.017,8.407c9.224-0.099,14.004-1.604,19.427,1.819
			C313.785,106.884,309.607,92.472,308.375,89.818z"/>
		<path style="opacity:0.2;" d="M273.14,140.15c-0.56,1.74-1.95,4.2-5.24,4.14c-0.2,0-0.39-0.02-0.57-0.05
			c-0.07-0.05-0.13-0.09-0.2-0.14c0.83-1.15,0.91-2.96,0.64-4.86c1.25-0.83,2.98-1.31,4.99-0.93
			C272.67,139.18,272.66,139.77,273.14,140.15z"/>
		<g>
			<path style="fill:#FFFFFF;" d="M275.064,145.816c0,0,0.139,1.857-0.756,3.491c-1.846-0.259-7.373-3.032-7.661-5.286
				c0.089-0.722,0.86-1.429,0.86-1.429S270.723,145.609,275.064,145.816z"/>
		</g>
		<g>
			<path style="fill:#FFFFFF;" d="M275.064,145.816c0,0,1.671,0.4,2.804,1.43c0.52-2.147-1.631-7.318-2.176-7.599
				c-1.097-0.248-2.618,0.442-2.618,0.442S276.088,142.911,275.064,145.816z"/>
		</g>
		<g>
			<path style="fill:#263238;" d="M260.248,131.082c-0.112,1.711,0.958,4.909,2.919,3.306
				C265.128,132.784,260.441,128.141,260.248,131.082z"/>
			<path style="fill:#FFC2BC;enable-background:new    ;" d="M272.222,130.435c1.241,4.025,2.173,6.319,0.936,9.07
				c-1.86,4.138-7.423,4.121-9.848,0.538c-2.183-3.225-3.845-9.265-0.563-12.248C265.98,124.856,270.981,126.41,272.222,130.435z"/>
			<path style="fill:#263238;" d="M272.862,125.342c-0.403-2.618-3.511-2.253-5.333-0.872c-0.015,0.012-0.031,0.018-0.046,0.029
				v5.172c0.749-0.382,1.428-0.786,1.96-1.196c0,0,0.705,3.872,3.072,4.974C275.627,130.515,275.878,126.02,272.862,125.342z"/>
			<path style="fill:#FFC2BC;enable-background:new    ;" d="M274.976,133.141c0.067,1.131-0.398,2.184-1.032,2.866
				c-0.954,1.025-2.173,0.349-2.528-0.933c-0.32-1.153-0.21-3.076,1.047-3.626C273.7,130.907,274.899,131.848,274.976,133.141z"/>
			<path style="fill:#263238;" d="M266.636,133.73c0.121,0.32,0.048,0.643-0.163,0.72c-0.211,0.077-0.479-0.12-0.6-0.441
				c-0.121-0.321-0.048-0.643,0.163-0.72C266.246,133.212,266.515,133.409,266.636,133.73z"/>
			<path style="fill:#263238;" d="M262.995,135.061c0.121,0.321,0.048,0.643-0.162,0.72c-0.211,0.077-0.479-0.12-0.6-0.441
				c-0.121-0.32-0.048-0.643,0.163-0.72C262.605,134.543,262.874,134.741,262.995,135.061z"/>
			<path style="fill:#ED893E;" d="M264.212,134.797c0,0-0.08,2.055-0.568,3.216c0.751,0.295,1.628-0.302,1.628-0.302
				L264.212,134.797z"/>
			<path style="fill:#263238;" d="M267.461,138.306c-0.125,0.066-0.261,0.127-0.409,0.181c-0.052,0.019-0.111-0.007-0.13-0.059
				c-0.02-0.052,0.008-0.11,0.059-0.129c1.414-0.519,1.704-1.741,1.706-1.754c0.012-0.054,0.066-0.087,0.12-0.075
				c0.055,0.012,0.089,0.066,0.077,0.12C268.874,136.639,268.624,137.693,267.461,138.306z"/>
			<path style="fill:#263238;" d="M267.318,132.149c-0.062,0.033-0.14,0.032-0.204-0.009c-0.762-0.483-1.442-0.188-1.449-0.185
				c-0.101,0.045-0.221,0-0.268-0.1c-0.046-0.101-0.001-0.22,0.1-0.265c0.036-0.016,0.889-0.386,1.833,0.214
				c0.094,0.06,0.122,0.184,0.063,0.277C267.373,132.11,267.347,132.133,267.318,132.149z"/>
			<path style="fill:#263238;" d="M260.956,134.389c-0.034,0.018-0.073,0.026-0.114,0.022c-0.111-0.011-0.193-0.109-0.182-0.219
				c0.104-1.106,0.926-1.533,0.96-1.557c0.099-0.051,0.221-0.012,0.273,0.086c0.052,0.098,0.014,0.218-0.083,0.27
				c-0.035,0.016-0.663,0.354-0.747,1.241C261.055,134.301,261.014,134.359,260.956,134.389z"/>
			<path style="fill:#263238;" d="M269.443,128.475c0,0-2.537,2.613-4.985,2.481c0,0,1.029-0.432,1.796-1.238
				c0,0-4.837,2.095-7.211,0.974c-2.374-1.121-2.11-2.268-2.11-2.268s0.264,0.685,2.571,0.619c0,0-1.978-1.319-1.187-3.165
				c0,0,0.33,0.725,1.187,0.791c0,0,1.953-3.626,7.141-4.22c5.188-0.593,6.247,1.464,6.476,2.974
				C273.352,126.934,269.443,128.475,269.443,128.475z"/>
		</g>
	</g>
</g>
<g id="Coin_stack">
	<g>
		<g>
			<path style="fill:#407BFF;" d="M366.447,398.494h-70.791c-0.698,0-1.264,0.566-1.264,1.264v16.129
				c0,0.698,0.566,1.264,1.264,1.264h70.791c0.698,0,1.264-0.566,1.264-1.264v-16.129
				C367.71,399.06,367.145,398.494,366.447,398.494z"/>
			<g>
				<rect x="297.669" y="399.571" style="opacity:0.2;" width="2.901" height="16.667"/>
				<rect x="305.054" y="399.49" style="opacity:0.2;" width="2.11" height="16.667"/>
				<rect x="312.175" y="399.571" style="opacity:0.2;" width="1.055" height="16.667"/>
				<rect x="320.878" y="399.49" style="opacity:0.2;" width="0.527" height="16.667"/>
				
					<rect x="361.532" y="399.49" transform="matrix(-1 -1.224647e-16 1.224647e-16 -1 725.9643 815.6457)" style="opacity:0.2;" width="2.901" height="16.667"/>
				
					<rect x="354.938" y="399.571" transform="matrix(-1 -1.224647e-16 1.224647e-16 -1 711.9863 815.8094)" style="opacity:0.2;" width="2.11" height="16.667"/>
				
					<rect x="348.872" y="399.49" transform="matrix(-1 -1.224647e-16 1.224647e-16 -1 698.7995 815.6457)" style="opacity:0.2;" width="1.055" height="16.667"/>
				
					<rect x="340.696" y="399.571" transform="matrix(-1 -1.224647e-16 1.224647e-16 -1 681.9203 815.8094)" style="opacity:0.2;" width="0.527" height="16.667"/>
			</g>
			
				<rect x="330.919" y="399.571" transform="matrix(-1 -1.224647e-16 1.224647e-16 -1 662.1021 815.8094)" style="opacity:0.2;" width="0.264" height="16.667"/>
			<path style="opacity:0.2;fill:#FFFFFF;" d="M365.753,401.333h-69.249c-0.486,0-0.881-0.394-0.881-0.881l0,0
				c0-0.486,0.394-0.881,0.881-0.881h69.249c0.486,0,0.881,0.394,0.881,0.881l0,0C366.633,400.939,366.239,401.333,365.753,401.333z
				"/>
		</g>
		<g>
			<path style="fill:#407BFF;" d="M368.448,379.88h-70.791c-0.698,0-1.264,0.566-1.264,1.264v16.129
				c0,0.698,0.566,1.264,1.264,1.264h70.791c0.698,0,1.264-0.566,1.264-1.264v-16.129
				C369.712,380.446,369.146,379.88,368.448,379.88z"/>
			<g>
				<rect x="299.671" y="380.957" style="opacity:0.2;" width="2.901" height="16.667"/>
				<rect x="307.055" y="380.875" style="opacity:0.2;" width="2.11" height="16.667"/>
				<rect x="314.176" y="380.957" style="opacity:0.2;" width="1.055" height="16.667"/>
				<rect x="322.879" y="380.875" style="opacity:0.2;" width="0.527" height="16.667"/>
				
					<rect x="363.533" y="380.875" transform="matrix(-1 -1.224647e-16 1.224647e-16 -1 729.9669 778.4166)" style="opacity:0.2;" width="2.901" height="16.667"/>
				
					<rect x="356.94" y="380.957" transform="matrix(-1 -1.224647e-16 1.224647e-16 -1 715.9888 778.5804)" style="opacity:0.2;" width="2.11" height="16.667"/>
				
					<rect x="350.874" y="380.875" transform="matrix(-1 -1.224647e-16 1.224647e-16 -1 702.802 778.4166)" style="opacity:0.2;" width="1.055" height="16.667"/>
				
					<rect x="342.698" y="380.957" transform="matrix(-1 -1.224647e-16 1.224647e-16 -1 685.9229 778.5804)" style="opacity:0.2;" width="0.527" height="16.667"/>
			</g>
			
				<rect x="332.921" y="380.957" transform="matrix(-1 -1.224647e-16 1.224647e-16 -1 666.1045 778.5804)" style="opacity:0.2;" width="0.264" height="16.667"/>
			<path style="opacity:0.2;fill:#FFFFFF;" d="M367.754,382.719h-69.249c-0.486,0-0.881-0.394-0.881-0.881l0,0
				c0-0.487,0.394-0.881,0.881-0.881h69.249c0.486,0,0.881,0.394,0.881,0.881l0,0C368.635,382.324,368.24,382.719,367.754,382.719z"
				/>
		</g>
		<g>
			<path style="fill:#407BFF;" d="M368.448,361.265h-70.791c-0.698,0-1.264,0.566-1.264,1.264v16.129
				c0,0.698,0.566,1.264,1.264,1.264h70.791c0.698,0,1.264-0.566,1.264-1.264v-16.129
				C369.712,361.831,369.146,361.265,368.448,361.265z"/>
			<g>
				<rect x="299.671" y="362.342" style="opacity:0.2;" width="2.901" height="16.667"/>
				<rect x="307.055" y="362.26" style="opacity:0.2;" width="2.11" height="16.667"/>
				<rect x="314.176" y="362.342" style="opacity:0.2;" width="1.055" height="16.667"/>
				<rect x="322.879" y="362.26" style="opacity:0.2;" width="0.527" height="16.667"/>
				
					<rect x="363.533" y="362.26" transform="matrix(-1 -1.224647e-16 1.224647e-16 -1 729.9669 741.1875)" style="opacity:0.2;" width="2.901" height="16.667"/>
				
					<rect x="356.94" y="362.342" transform="matrix(-1 -1.224647e-16 1.224647e-16 -1 715.9888 741.3512)" style="opacity:0.2;" width="2.11" height="16.667"/>
				
					<rect x="350.874" y="362.26" transform="matrix(-1 -1.224647e-16 1.224647e-16 -1 702.802 741.1875)" style="opacity:0.2;" width="1.055" height="16.667"/>
				
					<rect x="342.698" y="362.342" transform="matrix(-1 -1.224647e-16 1.224647e-16 -1 685.9229 741.3512)" style="opacity:0.2;" width="0.527" height="16.667"/>
			</g>
			
				<rect x="332.921" y="362.342" transform="matrix(-1 -1.224647e-16 1.224647e-16 -1 666.1045 741.3512)" style="opacity:0.2;" width="0.264" height="16.667"/>
			<path style="opacity:0.2;fill:#FFFFFF;" d="M367.754,364.104h-69.249c-0.486,0-0.881-0.394-0.881-0.881l0,0
				c0-0.486,0.394-0.881,0.881-0.881h69.249c0.486,0,0.881,0.394,0.881,0.881l0,0C368.635,363.71,368.24,364.104,367.754,364.104z"
				/>
		</g>
		<g>
			<path style="fill:#407BFF;" d="M366.447,342.651h-70.791c-0.698,0-1.264,0.566-1.264,1.264v16.129
				c0,0.698,0.566,1.264,1.264,1.264h70.791c0.698,0,1.264-0.566,1.264-1.264v-16.129
				C367.71,343.217,367.145,342.651,366.447,342.651z"/>
			<g>
				<rect x="297.669" y="343.728" style="opacity:0.2;" width="2.901" height="16.667"/>
				<rect x="305.054" y="343.646" style="opacity:0.2;" width="2.11" height="16.667"/>
				<rect x="312.175" y="343.728" style="opacity:0.2;" width="1.055" height="16.667"/>
				<rect x="320.878" y="343.646" style="opacity:0.2;" width="0.527" height="16.667"/>
				
					<rect x="361.532" y="343.646" transform="matrix(-1 -1.224647e-16 1.224647e-16 -1 725.9643 703.9584)" style="opacity:0.2;" width="2.901" height="16.667"/>
				
					<rect x="354.938" y="343.728" transform="matrix(-1 -1.224647e-16 1.224647e-16 -1 711.9863 704.1222)" style="opacity:0.2;" width="2.11" height="16.667"/>
				
					<rect x="348.872" y="343.646" transform="matrix(-1 -1.224647e-16 1.224647e-16 -1 698.7995 703.9584)" style="opacity:0.2;" width="1.055" height="16.667"/>
				
					<rect x="340.696" y="343.728" transform="matrix(-1 -1.224647e-16 1.224647e-16 -1 681.9203 704.1222)" style="opacity:0.2;" width="0.527" height="16.667"/>
			</g>
			
				<rect x="330.919" y="343.728" transform="matrix(-1 -1.224647e-16 1.224647e-16 -1 662.1021 704.1222)" style="opacity:0.2;" width="0.264" height="16.667"/>
			<path style="opacity:0.2;fill:#FFFFFF;" d="M365.753,345.489h-69.249c-0.486,0-0.881-0.394-0.881-0.881l0,0
				c0-0.487,0.394-0.881,0.881-0.881h69.249c0.486,0,0.881,0.394,0.881,0.881l0,0C366.633,345.095,366.239,345.489,365.753,345.489z
				"/>
		</g>
		<g>
			<path style="fill:#407BFF;" d="M363.445,324.036h-70.791c-0.698,0-1.264,0.566-1.264,1.264v16.129
				c0,0.698,0.566,1.264,1.264,1.264h70.791c0.698,0,1.264-0.566,1.264-1.264V325.3
				C364.708,324.602,364.143,324.036,363.445,324.036z"/>
			<g>
				<rect x="294.668" y="325.113" style="opacity:0.2;" width="2.901" height="16.667"/>
				<rect x="302.052" y="325.031" style="opacity:0.2;" width="2.11" height="16.667"/>
				<rect x="309.173" y="325.113" style="opacity:0.2;" width="1.055" height="16.667"/>
				<rect x="317.876" y="325.031" style="opacity:0.2;" width="0.527" height="16.667"/>
				
					<rect x="358.53" y="325.031" transform="matrix(-1 -1.224647e-16 1.224647e-16 -1 719.9605 666.7293)" style="opacity:0.2;" width="2.901" height="16.667"/>
				
					<rect x="351.936" y="325.113" transform="matrix(-1 -1.224647e-16 1.224647e-16 -1 705.9825 666.893)" style="opacity:0.2;" width="2.11" height="16.667"/>
				
					<rect x="345.87" y="325.031" transform="matrix(-1 -1.224647e-16 1.224647e-16 -1 692.7957 666.7293)" style="opacity:0.2;" width="1.055" height="16.667"/>
				
					<rect x="337.694" y="325.113" transform="matrix(-1 -1.224647e-16 1.224647e-16 -1 675.9165 666.893)" style="opacity:0.2;" width="0.527" height="16.667"/>
			</g>
			
				<rect x="327.917" y="325.113" transform="matrix(-1 -1.224647e-16 1.224647e-16 -1 656.0983 666.893)" style="opacity:0.2;" width="0.264" height="16.667"/>
			<path style="opacity:0.2;fill:#FFFFFF;" d="M362.751,326.875h-69.249c-0.486,0-0.881-0.394-0.881-0.881l0,0
				c0-0.486,0.394-0.881,0.881-0.881h69.249c0.486,0,0.881,0.394,0.881,0.881l0,0C363.632,326.48,363.237,326.875,362.751,326.875z"
				/>
		</g>
		<g>
			<path style="fill:#407BFF;" d="M366.447,305.422h-70.791c-0.698,0-1.264,0.566-1.264,1.264v16.129
				c0,0.698,0.566,1.264,1.264,1.264h70.791c0.698,0,1.264-0.566,1.264-1.264v-16.129
				C367.71,305.987,367.145,305.422,366.447,305.422z"/>
			<g>
				<rect x="297.669" y="306.499" style="opacity:0.2;" width="2.901" height="16.667"/>
				<rect x="305.054" y="306.417" style="opacity:0.2;" width="2.11" height="16.667"/>
				<rect x="312.175" y="306.499" style="opacity:0.2;" width="1.055" height="16.667"/>
				<rect x="320.878" y="306.417" style="opacity:0.2;" width="0.527" height="16.667"/>
				
					<rect x="361.532" y="306.417" transform="matrix(-1 -1.224647e-16 1.224647e-16 -1 725.9643 629.5002)" style="opacity:0.2;" width="2.901" height="16.667"/>
				
					<rect x="354.938" y="306.499" transform="matrix(-1 -1.224647e-16 1.224647e-16 -1 711.9863 629.664)" style="opacity:0.2;" width="2.11" height="16.667"/>
				
					<rect x="348.872" y="306.417" transform="matrix(-1 -1.224647e-16 1.224647e-16 -1 698.7995 629.5002)" style="opacity:0.2;" width="1.055" height="16.667"/>
				
					<rect x="340.696" y="306.499" transform="matrix(-1 -1.224647e-16 1.224647e-16 -1 681.9203 629.664)" style="opacity:0.2;" width="0.527" height="16.667"/>
			</g>
			
				<rect x="330.919" y="306.499" transform="matrix(-1 -1.224647e-16 1.224647e-16 -1 662.1021 629.664)" style="opacity:0.2;" width="0.264" height="16.667"/>
			<path style="opacity:0.2;fill:#FFFFFF;" d="M365.753,308.26h-69.249c-0.486,0-0.881-0.394-0.881-0.881l0,0
				c0-0.486,0.394-0.881,0.881-0.881h69.249c0.486,0,0.881,0.394,0.881,0.881l0,0C366.633,307.866,366.239,308.26,365.753,308.26z"
				/>
		</g>
		<g>
			<path style="fill:#407BFF;" d="M366.447,286.807h-70.791c-0.698,0-1.264,0.566-1.264,1.264V304.2
				c0,0.698,0.566,1.264,1.264,1.264h70.791c0.698,0,1.264-0.566,1.264-1.264v-16.129
				C367.71,287.373,367.145,286.807,366.447,286.807z"/>
			<g>
				<rect x="297.669" y="287.884" style="opacity:0.2;" width="2.901" height="16.667"/>
				<rect x="305.054" y="287.802" style="opacity:0.2;" width="2.11" height="16.667"/>
				<rect x="312.175" y="287.884" style="opacity:0.2;" width="1.055" height="16.667"/>
				<rect x="320.878" y="287.802" style="opacity:0.2;" width="0.527" height="16.667"/>
				
					<rect x="361.532" y="287.802" transform="matrix(-1 -1.224647e-16 1.224647e-16 -1 725.9643 592.2711)" style="opacity:0.2;" width="2.901" height="16.667"/>
				
					<rect x="354.938" y="287.884" transform="matrix(-1 -1.224647e-16 1.224647e-16 -1 711.9863 592.4348)" style="opacity:0.2;" width="2.11" height="16.667"/>
				
					<rect x="348.872" y="287.802" transform="matrix(-1 -1.224647e-16 1.224647e-16 -1 698.7995 592.2711)" style="opacity:0.2;" width="1.055" height="16.667"/>
				
					<rect x="340.696" y="287.884" transform="matrix(-1 -1.224647e-16 1.224647e-16 -1 681.9203 592.4348)" style="opacity:0.2;" width="0.527" height="16.667"/>
			</g>
			
				<rect x="330.919" y="287.884" transform="matrix(-1 -1.224647e-16 1.224647e-16 -1 662.1021 592.4348)" style="opacity:0.2;" width="0.264" height="16.667"/>
			<path style="opacity:0.2;fill:#FFFFFF;" d="M365.753,289.646h-69.249c-0.486,0-0.881-0.394-0.881-0.881l0,0
				c0-0.486,0.394-0.881,0.881-0.881h69.249c0.486,0,0.881,0.394,0.881,0.881l0,0C366.633,289.251,366.239,289.646,365.753,289.646z
				"/>
		</g>
		<g>
			<path style="fill:#407BFF;" d="M369.448,268.193h-70.791c-0.698,0-1.264,0.566-1.264,1.264v16.129
				c0,0.698,0.566,1.264,1.264,1.264h70.791c0.698,0,1.264-0.566,1.264-1.264v-16.129
				C370.712,268.758,370.146,268.193,369.448,268.193z"/>
			<g>
				<rect x="300.671" y="269.27" style="opacity:0.2;" width="2.901" height="16.667"/>
				<rect x="308.056" y="269.188" style="opacity:0.2;" width="2.11" height="16.667"/>
				<rect x="315.177" y="269.27" style="opacity:0.2;" width="1.055" height="16.667"/>
				<rect x="323.88" y="269.188" style="opacity:0.2;" width="0.527" height="16.667"/>
				
					<rect x="364.534" y="269.188" transform="matrix(-1 -1.224647e-16 1.224647e-16 -1 731.9681 555.042)" style="opacity:0.2;" width="2.901" height="16.667"/>
				
					<rect x="357.94" y="269.27" transform="matrix(-1 -1.224647e-16 1.224647e-16 -1 717.9901 555.2058)" style="opacity:0.2;" width="2.11" height="16.667"/>
				
					<rect x="351.874" y="269.188" transform="matrix(-1 -1.224647e-16 1.224647e-16 -1 704.8032 555.042)" style="opacity:0.2;" width="1.055" height="16.667"/>
				
					<rect x="343.698" y="269.27" transform="matrix(-1 -1.224647e-16 1.224647e-16 -1 687.9241 555.2058)" style="opacity:0.2;" width="0.527" height="16.667"/>
			</g>
			
				<rect x="333.921" y="269.27" transform="matrix(-1 -1.224647e-16 1.224647e-16 -1 668.1059 555.2058)" style="opacity:0.2;" width="0.264" height="16.667"/>
			<path style="opacity:0.2;fill:#FFFFFF;" d="M368.754,271.031h-69.249c-0.486,0-0.881-0.394-0.881-0.881l0,0
				c0-0.486,0.394-0.881,0.881-0.881h69.249c0.487,0,0.881,0.394,0.881,0.881l0,0C369.635,270.637,369.241,271.031,368.754,271.031z
				"/>
		</g>
		<g>
			<path style="fill:#407BFF;" d="M364.445,249.578h-70.791c-0.698,0-1.264,0.566-1.264,1.264v16.129
				c0,0.698,0.566,1.264,1.264,1.264h70.791c0.698,0,1.264-0.566,1.264-1.264v-16.129
				C365.709,250.144,365.143,249.578,364.445,249.578z"/>
			<g>
				<rect x="295.668" y="250.655" style="opacity:0.2;" width="2.901" height="16.667"/>
				<rect x="303.053" y="250.573" style="opacity:0.2;" width="2.11" height="16.667"/>
				<rect x="310.174" y="250.655" style="opacity:0.2;" width="1.055" height="16.667"/>
				<rect x="318.877" y="250.573" style="opacity:0.2;" width="0.527" height="16.667"/>
				
					<rect x="359.53" y="250.573" transform="matrix(-1 -1.224647e-16 1.224647e-16 -1 721.9617 517.8129)" style="opacity:0.2;" width="2.901" height="16.667"/>
				
					<rect x="352.937" y="250.655" transform="matrix(-1 -1.224647e-16 1.224647e-16 -1 707.9837 517.9766)" style="opacity:0.2;" width="2.11" height="16.667"/>
				
					<rect x="346.871" y="250.573" transform="matrix(-1 -1.224647e-16 1.224647e-16 -1 694.7969 517.8129)" style="opacity:0.2;" width="1.055" height="16.667"/>
				
					<rect x="338.695" y="250.655" transform="matrix(-1 -1.224647e-16 1.224647e-16 -1 677.9178 517.9766)" style="opacity:0.2;" width="0.527" height="16.667"/>
			</g>
			
				<rect x="328.918" y="250.655" transform="matrix(-1 -1.224647e-16 1.224647e-16 -1 658.0995 517.9766)" style="opacity:0.2;" width="0.264" height="16.667"/>
			<path style="opacity:0.2;fill:#FFFFFF;" d="M363.751,252.417h-69.249c-0.487,0-0.881-0.394-0.881-0.881l0,0
				c0-0.486,0.394-0.881,0.881-0.881h69.249c0.486,0,0.881,0.394,0.881,0.881l0,0C364.632,252.022,364.238,252.417,363.751,252.417z
				"/>
		</g>
		<g>
			<path style="fill:#407BFF;" d="M362.444,230.964h-70.791c-0.698,0-1.264,0.566-1.264,1.264v16.129
				c0,0.698,0.566,1.264,1.264,1.264h70.791c0.698,0,1.264-0.566,1.264-1.264v-16.129
				C363.708,231.529,363.142,230.964,362.444,230.964z"/>
			<g>
				<rect x="293.667" y="232.04" style="opacity:0.2;" width="2.901" height="16.667"/>
				<rect x="301.051" y="231.959" style="opacity:0.2;" width="2.11" height="16.667"/>
				<rect x="308.172" y="232.04" style="opacity:0.2;" width="1.055" height="16.667"/>
				<rect x="316.876" y="231.959" style="opacity:0.2;" width="0.527" height="16.667"/>
				
					<rect x="357.529" y="231.959" transform="matrix(-1 -1.224647e-16 1.224647e-16 -1 717.9593 480.5838)" style="opacity:0.2;" width="2.901" height="16.667"/>
				
					<rect x="350.936" y="232.04" transform="matrix(-1 -1.224647e-16 1.224647e-16 -1 703.9813 480.7476)" style="opacity:0.2;" width="2.11" height="16.667"/>
				
					<rect x="344.87" y="231.959" transform="matrix(-1 -1.224647e-16 1.224647e-16 -1 690.7944 480.5838)" style="opacity:0.2;" width="1.055" height="16.667"/>
				
					<rect x="336.694" y="232.04" transform="matrix(-1 -1.224647e-16 1.224647e-16 -1 673.9153 480.7476)" style="opacity:0.2;" width="0.527" height="16.667"/>
			</g>
			
				<rect x="326.917" y="232.04" transform="matrix(-1 -1.224647e-16 1.224647e-16 -1 654.097 480.7476)" style="opacity:0.2;" width="0.263" height="16.667"/>
			<path style="opacity:0.2;fill:#FFFFFF;" d="M361.75,233.802h-69.249c-0.486,0-0.881-0.394-0.881-0.881l0,0
				c0-0.486,0.394-0.881,0.881-0.881h69.249c0.487,0,0.881,0.394,0.881,0.881l0,0C362.631,233.408,362.237,233.802,361.75,233.802z"
				/>
		</g>
		<g>
			<path style="fill:#407BFF;" d="M276.39,398.494h-70.791c-0.698,0-1.264,0.566-1.264,1.264v16.129
				c0,0.698,0.566,1.264,1.264,1.264h70.791c0.698,0,1.264-0.566,1.264-1.264v-16.129
				C277.654,399.06,277.088,398.494,276.39,398.494z"/>
			<g>
				<rect x="207.613" y="399.571" style="opacity:0.2;" width="2.901" height="16.667"/>
				<rect x="214.997" y="399.49" style="opacity:0.2;" width="2.11" height="16.667"/>
				<rect x="222.118" y="399.571" style="opacity:0.2;" width="1.055" height="16.667"/>
				<rect x="230.821" y="399.49" style="opacity:0.2;" width="0.527" height="16.667"/>
				
					<rect x="271.475" y="399.49" transform="matrix(-1 -1.224647e-16 1.224647e-16 -1 545.8509 815.6457)" style="opacity:0.2;" width="2.901" height="16.667"/>
				
					<rect x="264.882" y="399.571" transform="matrix(-1 -1.224647e-16 1.224647e-16 -1 531.8729 815.8094)" style="opacity:0.2;" width="2.11" height="16.667"/>
				
					<rect x="258.816" y="399.49" transform="matrix(-1 -1.224647e-16 1.224647e-16 -1 518.6861 815.6457)" style="opacity:0.2;" width="1.055" height="16.667"/>
				
					<rect x="250.64" y="399.571" transform="matrix(-1 -1.224647e-16 1.224647e-16 -1 501.8069 815.8094)" style="opacity:0.2;" width="0.527" height="16.667"/>
			</g>
			
				<rect x="240.863" y="399.571" transform="matrix(-1 -1.224647e-16 1.224647e-16 -1 481.9887 815.8094)" style="opacity:0.2;" width="0.264" height="16.667"/>
			<path style="opacity:0.2;fill:#FFFFFF;" d="M275.696,401.333h-69.25c-0.486,0-0.881-0.394-0.881-0.881l0,0
				c0-0.486,0.394-0.881,0.881-0.881h69.25c0.486,0,0.881,0.394,0.881,0.881l0,0C276.577,400.939,276.182,401.333,275.696,401.333z"
				/>
		</g>
		<g>
			<path style="fill:#407BFF;" d="M273.388,379.88h-70.791c-0.698,0-1.264,0.566-1.264,1.264v16.129
				c0,0.698,0.566,1.264,1.264,1.264h70.791c0.698,0,1.264-0.566,1.264-1.264v-16.129
				C274.652,380.446,274.086,379.88,273.388,379.88z"/>
			<g>
				<rect x="204.611" y="380.957" style="opacity:0.2;" width="2.901" height="16.667"/>
				<rect x="211.995" y="380.875" style="opacity:0.2;" width="2.11" height="16.667"/>
				<rect x="219.116" y="380.957" style="opacity:0.2;" width="1.055" height="16.667"/>
				<rect x="227.82" y="380.875" style="opacity:0.2;" width="0.527" height="16.667"/>
				
					<rect x="268.473" y="380.875" transform="matrix(-1 -1.224647e-16 1.224647e-16 -1 539.8471 778.4166)" style="opacity:0.2;" width="2.901" height="16.667"/>
				
					<rect x="261.88" y="380.957" transform="matrix(-1 -1.224647e-16 1.224647e-16 -1 525.8691 778.5804)" style="opacity:0.2;" width="2.11" height="16.667"/>
				
					<rect x="255.814" y="380.875" transform="matrix(-1 -1.224647e-16 1.224647e-16 -1 512.6823 778.4166)" style="opacity:0.2;" width="1.055" height="16.667"/>
				
					<rect x="247.638" y="380.957" transform="matrix(-1 -1.224647e-16 1.224647e-16 -1 495.8032 778.5804)" style="opacity:0.2;" width="0.527" height="16.667"/>
			</g>
			
				<rect x="237.861" y="380.957" transform="matrix(-1 -1.224647e-16 1.224647e-16 -1 475.9849 778.5804)" style="opacity:0.2;" width="0.264" height="16.667"/>
			<path style="opacity:0.2;fill:#FFFFFF;" d="M272.694,382.719h-69.249c-0.486,0-0.881-0.394-0.881-0.881l0,0
				c0-0.487,0.394-0.881,0.881-0.881h69.249c0.486,0,0.881,0.394,0.881,0.881l0,0C273.575,382.324,273.181,382.719,272.694,382.719z
				"/>
		</g>
		<g>
			<path style="fill:#407BFF;" d="M276.39,361.265h-70.791c-0.698,0-1.264,0.566-1.264,1.264v16.129
				c0,0.698,0.566,1.264,1.264,1.264h70.791c0.698,0,1.264-0.566,1.264-1.264v-16.129
				C277.654,361.831,277.088,361.265,276.39,361.265z"/>
			<g>
				<rect x="207.613" y="362.342" style="opacity:0.2;" width="2.901" height="16.667"/>
				<rect x="214.997" y="362.26" style="opacity:0.2;" width="2.11" height="16.667"/>
				<rect x="222.118" y="362.342" style="opacity:0.2;" width="1.055" height="16.667"/>
				<rect x="230.821" y="362.26" style="opacity:0.2;" width="0.527" height="16.667"/>
				
					<rect x="271.475" y="362.26" transform="matrix(-1 -1.224647e-16 1.224647e-16 -1 545.8509 741.1875)" style="opacity:0.2;" width="2.901" height="16.667"/>
				
					<rect x="264.882" y="362.342" transform="matrix(-1 -1.224647e-16 1.224647e-16 -1 531.8729 741.3512)" style="opacity:0.2;" width="2.11" height="16.667"/>
				
					<rect x="258.816" y="362.26" transform="matrix(-1 -1.224647e-16 1.224647e-16 -1 518.6861 741.1875)" style="opacity:0.2;" width="1.055" height="16.667"/>
				
					<rect x="250.64" y="362.342" transform="matrix(-1 -1.224647e-16 1.224647e-16 -1 501.8069 741.3512)" style="opacity:0.2;" width="0.527" height="16.667"/>
			</g>
			
				<rect x="240.863" y="362.342" transform="matrix(-1 -1.224647e-16 1.224647e-16 -1 481.9887 741.3512)" style="opacity:0.2;" width="0.264" height="16.667"/>
			<path style="opacity:0.2;fill:#FFFFFF;" d="M275.696,364.104h-69.25c-0.486,0-0.881-0.394-0.881-0.881l0,0
				c0-0.486,0.394-0.881,0.881-0.881h69.25c0.486,0,0.881,0.394,0.881,0.881l0,0C276.577,363.71,276.182,364.104,275.696,364.104z"
				/>
		</g>
		<g>
			<path style="fill:#407BFF;" d="M274.389,342.651h-70.791c-0.698,0-1.264,0.566-1.264,1.264v16.129
				c0,0.698,0.566,1.264,1.264,1.264h70.791c0.698,0,1.264-0.566,1.264-1.264v-16.129
				C275.652,343.217,275.087,342.651,274.389,342.651z"/>
			<g>
				<rect x="205.611" y="343.728" style="opacity:0.2;" width="2.901" height="16.667"/>
				<rect x="212.996" y="343.646" style="opacity:0.2;" width="2.11" height="16.667"/>
				<rect x="220.117" y="343.728" style="opacity:0.2;" width="1.055" height="16.667"/>
				<rect x="228.82" y="343.646" style="opacity:0.2;" width="0.527" height="16.667"/>
				
					<rect x="269.474" y="343.646" transform="matrix(-1 -1.224647e-16 1.224647e-16 -1 541.8483 703.9584)" style="opacity:0.2;" width="2.901" height="16.667"/>
				
					<rect x="262.88" y="343.728" transform="matrix(-1 -1.224647e-16 1.224647e-16 -1 527.8703 704.1222)" style="opacity:0.2;" width="2.11" height="16.667"/>
				
					<rect x="256.814" y="343.646" transform="matrix(-1 -1.224647e-16 1.224647e-16 -1 514.6836 703.9584)" style="opacity:0.2;" width="1.055" height="16.667"/>
				
					<rect x="248.639" y="343.728" transform="matrix(-1 -1.224647e-16 1.224647e-16 -1 497.8045 704.1222)" style="opacity:0.2;" width="0.527" height="16.667"/>
			</g>
			
				<rect x="238.861" y="343.728" transform="matrix(-1 -1.224647e-16 1.224647e-16 -1 477.9861 704.1222)" style="opacity:0.2;" width="0.264" height="16.667"/>
			<path style="opacity:0.2;fill:#FFFFFF;" d="M273.695,345.489h-69.249c-0.486,0-0.881-0.394-0.881-0.881l0,0
				c0-0.487,0.394-0.881,0.881-0.881h69.249c0.486,0,0.881,0.394,0.881,0.881l0,0C274.576,345.095,274.181,345.489,273.695,345.489z
				"/>
		</g>
		<g>
			<path style="fill:#407BFF;" d="M274.389,324.036h-70.791c-0.698,0-1.264,0.566-1.264,1.264v16.129
				c0,0.698,0.566,1.264,1.264,1.264h70.791c0.698,0,1.264-0.566,1.264-1.264V325.3
				C275.652,324.602,275.087,324.036,274.389,324.036z"/>
			<g>
				<rect x="205.611" y="325.113" style="opacity:0.2;" width="2.901" height="16.667"/>
				<rect x="212.996" y="325.031" style="opacity:0.2;" width="2.11" height="16.667"/>
				<rect x="220.117" y="325.113" style="opacity:0.2;" width="1.055" height="16.667"/>
				<rect x="228.82" y="325.031" style="opacity:0.2;" width="0.527" height="16.667"/>
				
					<rect x="269.474" y="325.031" transform="matrix(-1 -1.224647e-16 1.224647e-16 -1 541.8483 666.7293)" style="opacity:0.2;" width="2.901" height="16.667"/>
				
					<rect x="262.88" y="325.113" transform="matrix(-1 -1.224647e-16 1.224647e-16 -1 527.8703 666.893)" style="opacity:0.2;" width="2.11" height="16.667"/>
				
					<rect x="256.814" y="325.031" transform="matrix(-1 -1.224647e-16 1.224647e-16 -1 514.6836 666.7293)" style="opacity:0.2;" width="1.055" height="16.667"/>
				
					<rect x="248.639" y="325.113" transform="matrix(-1 -1.224647e-16 1.224647e-16 -1 497.8045 666.893)" style="opacity:0.2;" width="0.527" height="16.667"/>
			</g>
			
				<rect x="238.861" y="325.113" transform="matrix(-1 -1.224647e-16 1.224647e-16 -1 477.9861 666.893)" style="opacity:0.2;" width="0.264" height="16.667"/>
			<path style="opacity:0.2;fill:#FFFFFF;" d="M273.695,326.875h-69.249c-0.486,0-0.881-0.394-0.881-0.881l0,0
				c0-0.486,0.394-0.881,0.881-0.881h69.249c0.486,0,0.881,0.394,0.881,0.881l0,0C274.576,326.48,274.181,326.875,273.695,326.875z"
				/>
		</g>
		<g>
			<path style="fill:#407BFF;" d="M274.389,305.422h-70.791c-0.698,0-1.264,0.566-1.264,1.264v16.129
				c0,0.698,0.566,1.264,1.264,1.264h70.791c0.698,0,1.264-0.566,1.264-1.264v-16.129
				C275.652,305.987,275.087,305.422,274.389,305.422z"/>
			<g>
				<rect x="205.611" y="306.499" style="opacity:0.2;" width="2.901" height="16.667"/>
				<rect x="212.996" y="306.417" style="opacity:0.2;" width="2.11" height="16.667"/>
				<rect x="220.117" y="306.499" style="opacity:0.2;" width="1.055" height="16.667"/>
				<rect x="228.82" y="306.417" style="opacity:0.2;" width="0.527" height="16.667"/>
				
					<rect x="269.474" y="306.417" transform="matrix(-1 -1.224647e-16 1.224647e-16 -1 541.8483 629.5002)" style="opacity:0.2;" width="2.901" height="16.667"/>
				
					<rect x="262.88" y="306.499" transform="matrix(-1 -1.224647e-16 1.224647e-16 -1 527.8703 629.664)" style="opacity:0.2;" width="2.11" height="16.667"/>
				
					<rect x="256.814" y="306.417" transform="matrix(-1 -1.224647e-16 1.224647e-16 -1 514.6836 629.5002)" style="opacity:0.2;" width="1.055" height="16.667"/>
				
					<rect x="248.639" y="306.499" transform="matrix(-1 -1.224647e-16 1.224647e-16 -1 497.8045 629.664)" style="opacity:0.2;" width="0.527" height="16.667"/>
			</g>
			
				<rect x="238.861" y="306.499" transform="matrix(-1 -1.224647e-16 1.224647e-16 -1 477.9861 629.664)" style="opacity:0.2;" width="0.264" height="16.667"/>
			<path style="opacity:0.2;fill:#FFFFFF;" d="M273.695,308.26h-69.249c-0.486,0-0.881-0.394-0.881-0.881l0,0
				c0-0.486,0.394-0.881,0.881-0.881h69.249c0.486,0,0.881,0.394,0.881,0.881l0,0C274.576,307.866,274.181,308.26,273.695,308.26z"
				/>
		</g>
		<g>
			<path style="fill:#407BFF;" d="M275.259,267.994h-70.791c-0.698,0-1.264,0.566-1.264,1.264v16.129
				c0,0.698,0.566,1.264,1.264,1.264h70.791c0.698,0,1.264-0.566,1.264-1.264v-16.129
				C276.522,268.56,275.957,267.994,275.259,267.994z"/>
			<g>
				<rect x="206.482" y="269.071" style="opacity:0.2;" width="2.901" height="16.667"/>
				<rect x="213.866" y="268.989" style="opacity:0.2;" width="2.11" height="16.667"/>
				<rect x="220.987" y="269.071" style="opacity:0.2;" width="1.055" height="16.667"/>
				<rect x="229.69" y="268.989" style="opacity:0.2;" width="0.527" height="16.667"/>
				
					<rect x="270.344" y="268.989" transform="matrix(-1 -1.224647e-16 1.224647e-16 -1 543.5885 554.6446)" style="opacity:0.2;" width="2.901" height="16.667"/>
				
					<rect x="263.75" y="269.071" transform="matrix(-1 -1.224647e-16 1.224647e-16 -1 529.6105 554.8083)" style="opacity:0.2;" width="2.11" height="16.667"/>
				
					<rect x="257.684" y="268.989" transform="matrix(-1 -1.224647e-16 1.224647e-16 -1 516.4237 554.6446)" style="opacity:0.2;" width="1.055" height="16.667"/>
				
					<rect x="249.509" y="269.071" transform="matrix(-1 -1.224647e-16 1.224647e-16 -1 499.5446 554.8083)" style="opacity:0.2;" width="0.527" height="16.667"/>
			</g>
			
				<rect x="239.731" y="269.071" transform="matrix(-1 -1.224647e-16 1.224647e-16 -1 479.7263 554.8083)" style="opacity:0.2;" width="0.264" height="16.667"/>
			<path style="opacity:0.2;fill:#FFFFFF;" d="M274.565,270.832h-69.249c-0.486,0-0.881-0.394-0.881-0.881l0,0
				c0-0.486,0.394-0.881,0.881-0.881h69.249c0.486,0,0.881,0.394,0.881,0.881l0,0C275.446,270.438,275.051,270.832,274.565,270.832z
				"/>
		</g>
		<g>
			<path style="fill:#407BFF;" d="M276.39,286.807h-70.791c-0.698,0-1.264,0.566-1.264,1.264V304.2c0,0.698,0.566,1.264,1.264,1.264
				h70.791c0.698,0,1.264-0.566,1.264-1.264v-16.129C277.654,287.373,277.088,286.807,276.39,286.807z"/>
			<g>
				<rect x="207.613" y="287.884" style="opacity:0.2;" width="2.901" height="16.667"/>
				<rect x="214.997" y="287.802" style="opacity:0.2;" width="2.11" height="16.667"/>
				<rect x="222.118" y="287.884" style="opacity:0.2;" width="1.055" height="16.667"/>
				<rect x="230.821" y="287.802" style="opacity:0.2;" width="0.527" height="16.667"/>
				
					<rect x="271.475" y="287.802" transform="matrix(-1 -1.224647e-16 1.224647e-16 -1 545.8509 592.2711)" style="opacity:0.2;" width="2.901" height="16.667"/>
				
					<rect x="264.882" y="287.884" transform="matrix(-1 -1.224647e-16 1.224647e-16 -1 531.8729 592.4348)" style="opacity:0.2;" width="2.11" height="16.667"/>
				
					<rect x="258.816" y="287.802" transform="matrix(-1 -1.224647e-16 1.224647e-16 -1 518.6861 592.2711)" style="opacity:0.2;" width="1.055" height="16.667"/>
				
					<rect x="250.64" y="287.884" transform="matrix(-1 -1.224647e-16 1.224647e-16 -1 501.8069 592.4348)" style="opacity:0.2;" width="0.527" height="16.667"/>
			</g>
			
				<rect x="240.863" y="287.884" transform="matrix(-1 -1.224647e-16 1.224647e-16 -1 481.9887 592.4348)" style="opacity:0.2;" width="0.264" height="16.667"/>
			<path style="opacity:0.2;fill:#FFFFFF;" d="M275.696,289.646h-69.25c-0.486,0-0.881-0.394-0.881-0.881l0,0
				c0-0.486,0.394-0.881,0.881-0.881h69.25c0.486,0,0.881,0.394,0.881,0.881l0,0C276.577,289.251,276.182,289.646,275.696,289.646z"
				/>
		</g>
		<g>
			<path style="fill:#407BFF;" d="M186.333,398.494h-70.791c-0.698,0-1.264,0.566-1.264,1.264v16.129
				c0,0.698,0.566,1.264,1.264,1.264h70.791c0.698,0,1.264-0.566,1.264-1.264v-16.129
				C187.597,399.06,187.031,398.494,186.333,398.494z"/>
			<g>
				<rect x="117.556" y="399.571" style="opacity:0.2;" width="2.901" height="16.667"/>
				<rect x="124.941" y="399.49" style="opacity:0.2;" width="2.11" height="16.667"/>
				<rect x="132.061" y="399.571" style="opacity:0.2;" width="1.055" height="16.667"/>
				<rect x="140.765" y="399.49" style="opacity:0.2;" width="0.527" height="16.667"/>
				
					<rect x="181.418" y="399.49" transform="matrix(-1 -1.224647e-16 1.224647e-16 -1 365.7375 815.6457)" style="opacity:0.2;" width="2.901" height="16.667"/>
				
					<rect x="174.825" y="399.571" transform="matrix(-1 -1.224647e-16 1.224647e-16 -1 351.7595 815.8094)" style="opacity:0.2;" width="2.11" height="16.667"/>
				
					<rect x="168.759" y="399.49" transform="matrix(-1 -1.224647e-16 1.224647e-16 -1 338.5727 815.6457)" style="opacity:0.2;" width="1.055" height="16.667"/>
				
					<rect x="160.583" y="399.571" transform="matrix(-1 -1.224647e-16 1.224647e-16 -1 321.6935 815.8094)" style="opacity:0.2;" width="0.527" height="16.667"/>
			</g>
			
				<rect x="150.806" y="399.571" transform="matrix(-1 -1.224647e-16 1.224647e-16 -1 301.8753 815.8094)" style="opacity:0.2;" width="0.264" height="16.667"/>
			<path style="opacity:0.2;fill:#FFFFFF;" d="M185.639,401.333H116.39c-0.487,0-0.881-0.394-0.881-0.881l0,0
				c0-0.486,0.394-0.881,0.881-0.881h69.249c0.486,0,0.881,0.394,0.881,0.881l0,0C186.52,400.939,186.126,401.333,185.639,401.333z"
				/>
		</g>
		<g>
			<path style="fill:#407BFF;" d="M187.334,379.88h-70.791c-0.698,0-1.264,0.566-1.264,1.264v16.129
				c0,0.698,0.566,1.264,1.264,1.264h70.791c0.698,0,1.264-0.566,1.264-1.264v-16.129
				C188.598,380.446,188.032,379.88,187.334,379.88z"/>
			<g>
				<rect x="118.557" y="380.957" style="opacity:0.2;" width="2.901" height="16.667"/>
				<rect x="125.941" y="380.875" style="opacity:0.2;" width="2.11" height="16.667"/>
				<rect x="133.062" y="380.957" style="opacity:0.2;" width="1.055" height="16.667"/>
				<rect x="141.765" y="380.875" style="opacity:0.2;" width="0.527" height="16.667"/>
				
					<rect x="182.419" y="380.875" transform="matrix(-1 -1.224647e-16 1.224647e-16 -1 367.7387 778.4166)" style="opacity:0.2;" width="2.901" height="16.667"/>
				
					<rect x="175.825" y="380.957" transform="matrix(-1 -1.224647e-16 1.224647e-16 -1 353.7607 778.5804)" style="opacity:0.2;" width="2.11" height="16.667"/>
				
					<rect x="169.76" y="380.875" transform="matrix(-1 -1.224647e-16 1.224647e-16 -1 340.5739 778.4166)" style="opacity:0.2;" width="1.055" height="16.667"/>
				
					<rect x="161.584" y="380.957" transform="matrix(-1 -1.224647e-16 1.224647e-16 -1 323.6949 778.5804)" style="opacity:0.2;" width="0.527" height="16.667"/>
			</g>
			
				<rect x="151.807" y="380.957" transform="matrix(-1 -1.224647e-16 1.224647e-16 -1 303.8765 778.5804)" style="opacity:0.2;" width="0.264" height="16.667"/>
			<path style="opacity:0.2;fill:#FFFFFF;" d="M186.64,382.719h-69.249c-0.487,0-0.881-0.394-0.881-0.881l0,0
				c0-0.487,0.394-0.881,0.881-0.881h69.249c0.486,0,0.881,0.394,0.881,0.881l0,0C187.521,382.324,187.126,382.719,186.64,382.719z"
				/>
		</g>
		<g>
			<path style="fill:#407BFF;" d="M183.331,361.265H112.54c-0.698,0-1.264,0.566-1.264,1.264v16.129
				c0,0.698,0.566,1.264,1.264,1.264h70.791c0.698,0,1.264-0.566,1.264-1.264v-16.129
				C184.595,361.831,184.029,361.265,183.331,361.265z"/>
			<g>
				<rect x="114.554" y="362.342" style="opacity:0.2;" width="2.901" height="16.667"/>
				<rect x="121.939" y="362.26" style="opacity:0.2;" width="2.11" height="16.667"/>
				<rect x="129.06" y="362.342" style="opacity:0.2;" width="1.055" height="16.667"/>
				<rect x="137.763" y="362.26" style="opacity:0.2;" width="0.527" height="16.667"/>
				
					<rect x="178.416" y="362.26" transform="matrix(-1 -1.224647e-16 1.224647e-16 -1 359.7337 741.1875)" style="opacity:0.2;" width="2.901" height="16.667"/>
				
					<rect x="171.823" y="362.342" transform="matrix(-1 -1.224647e-16 1.224647e-16 -1 345.7557 741.3512)" style="opacity:0.2;" width="2.11" height="16.667"/>
				
					<rect x="165.757" y="362.26" transform="matrix(-1 -1.224647e-16 1.224647e-16 -1 332.5689 741.1875)" style="opacity:0.2;" width="1.055" height="16.667"/>
				
					<rect x="157.581" y="362.342" transform="matrix(-1 -1.224647e-16 1.224647e-16 -1 315.6898 741.3512)" style="opacity:0.2;" width="0.527" height="16.667"/>
			</g>
			
				<rect x="147.804" y="362.342" transform="matrix(-1 -1.224647e-16 1.224647e-16 -1 295.8715 741.3512)" style="opacity:0.2;" width="0.264" height="16.667"/>
			<path style="opacity:0.2;fill:#FFFFFF;" d="M182.637,364.104h-69.249c-0.487,0-0.881-0.394-0.881-0.881l0,0
				c0-0.486,0.394-0.881,0.881-0.881h69.249c0.486,0,0.881,0.394,0.881,0.881l0,0C183.518,363.71,183.124,364.104,182.637,364.104z"
				/>
		</g>
	</g>
</g>
<g id="Character_1">
	<g>
		<polygon style="fill:#E4897B;" points="143.46,348.93 141.45,353.88 139.93,357.62 136.11,356.26 137.48,352.9 139.64,347.56 		
			"/>
		<polygon style="fill:#E4897B;" points="225.1,322.43 221.85,324.84 220.66,322.2 217.9,316.1 221.15,313.68 223.76,319.46 		"/>
		<polygon style="opacity:0.2;" points="139.64,347.56 143.46,348.93 141.45,353.88 137.48,352.9 		"/>
		<polygon style="opacity:0.2;" points="223.76,319.46 220.66,322.2 217.9,316.1 221.15,313.68 		"/>
		<path style="fill:#263238;" d="M172.131,211.879c0.109,0.308,0.36,0.5,0.561,0.429c0.201-0.071,0.276-0.378,0.168-0.686
			c-0.109-0.308-0.36-0.5-0.561-0.429C172.098,211.264,172.023,211.571,172.131,211.879z"/>
		<path style="fill:#DE5753;" d="M172.463,212.389c0,0,1.327,1.53,2.401,2.115c-0.366,0.701-1.374,0.795-1.374,0.795
			L172.463,212.389z"/>
		<path style="fill:#263238;" d="M170.4,210.567c-0.046,0.006-0.095-0.004-0.136-0.033c-0.087-0.061-0.109-0.18-0.048-0.267
			c0.606-0.872,1.49-0.855,1.529-0.854c0.106,0.003,0.189,0.092,0.186,0.198c-0.004,0.106-0.093,0.189-0.197,0.186l0,0
			c-0.029-0.001-0.72-0.005-1.203,0.69C170.499,210.532,170.451,210.56,170.4,210.567z"/>
		<path style="fill:#E4897B;" d="M164.732,216.921c0.052,3.018-0.33,8.464-2.717,10.046c0,0,0.27,3.101,5.689,4.067
			c5.959,1.062,3.375-2.451,3.375-2.451c-3.114-1.356-2.6-3.754-1.629-5.92L164.732,216.921z"/>
		<path style="fill:#E4897B;" d="M161.627,214.852c1.567,3.701,2.296,5.947,4.892,7.214c3.905,1.907,7.963-1.474,7.533-5.568
			c-0.387-3.686-2.885-9.118-7.119-9.317C162.762,206.984,160.06,211.151,161.627,214.852z"/>
		<path style="fill:#263238;" d="M164.268,220.874c1.765,0.707,7.289-3.251,5.403-7.819c0,0,1.889-3.047,1.212-6.024
			c-0.677-2.977-2.905-3.837-5.015-2.883c-1.86,0.841-1.655,1.895-1.655,1.895s-9.014,2.358-6.538,5.811
			C154.512,216.442,162.065,219.992,164.268,220.874z"/>
		<path style="fill:#E4897B;" d="M168.191,214.1c0.403,0.973,1.187,1.748,1.953,2.167c1.152,0.631,1.825-0.242,1.586-1.413
			c-0.215-1.054-1.074-2.652-2.269-2.806C168.283,211.895,167.731,212.987,168.191,214.1z"/>
		<path style="fill:#407BFF;" d="M160.57,227.016c-0.417-0.836-0.876-1.792,0.14-2.057c1.118-0.291,8.257-0.677,10.331-0.005
			c-0.677,1.124,0.368,2.562,0.368,2.562L160.57,227.016z"/>
		<path style="opacity:0.5;fill:#FAFAFA;" d="M160.57,227.016c-0.417-0.836-0.876-1.792,0.14-2.057
			c1.118-0.291,8.257-0.677,10.331-0.005c-0.677,1.124,0.368,2.562,0.368,2.562L160.57,227.016z"/>
		<path style="fill:#263238;" d="M140.193,355.955h-4.422c-0.165,0-0.309,0.115-0.345,0.277l-0.8,3.599
			c-0.083,0.373,0.2,0.727,0.583,0.72c1.595-0.027,3.9-0.121,5.905-0.121c2.344,0,4.369,0.128,7.119,0.128
			c1.662,0,2.124-1.681,1.428-1.833c-3.168-0.693-5.755-0.767-8.492-2.455C140.872,356.087,140.543,355.955,140.193,355.955z"/>
		<path style="fill:#263238;" d="M168.79,262.75c0,0-1.26,8.49-2.82,18.24c-0.67,4.18-1.39,8.59-2.1,12.67
			c-0.79,4.57-1.56,8.71-2.2,11.63c-2.76,12.7-17.57,47.7-17.57,47.7l-7.25-1.57c0,0,10.36-27.23,12.67-44.98
			c1.79-13.63,5.3-43.69,5.3-43.69H168.79z"/>
		<path style="fill:#407BFF;" d="M145.831,350.567c0.031,0.007-1.351,2.621-1.351,2.621l-8.156-1.766l0.688-2.452L145.831,350.567z"
			/>
		<path style="opacity:0.3;" d="M145.831,350.567c0.031,0.007-1.351,2.621-1.351,2.621l-8.156-1.766l0.688-2.452L145.831,350.567z"
			/>
		<path style="opacity:0.2;" d="M165.97,280.99c-0.67,4.18-1.39,8.59-2.1,12.67c-1.95-8.07-1.35-12.9-1.35-12.9L165.97,280.99z"/>
		<g>
			<path style="fill:#DC897C;" d="M156.937,234.413c-1.942,1.839-3.956,3.791-5.857,5.739c-1.879,1.969-3.761,3.99-5.343,6.032
				c-0.611,0.827-1.306,2.055-1.924,3.236c-0.624,1.208-1.249,2.444-1.856,3.697l-3.668,7.579l-2.874-0.991
				c0.615-2.819,1.406-5.554,2.271-8.306c0.449-1.369,0.923-2.738,1.461-4.106c0.568-1.382,1.091-2.717,2.04-4.249
				c1.677-2.579,3.496-4.849,5.462-7.022c1.96-2.181,3.961-4.216,6.198-6.184L156.937,234.413z"/>
		</g>
		<path style="fill:#E4897B;" d="M135.17,267.065l1.466-2.609l-4.479-1.352c0,0-0.903,2.105,0.084,3.8L135.17,267.065z"/>
		<polygon style="fill:#E4897B;" points="138.28,260.635 135.413,259.704 132.156,263.104 136.636,264.456 		"/>
		<path style="fill:#263238;" d="M225.054,321.883l-3.655,2.709c-0.133,0.099-0.18,0.276-0.112,0.427l1.501,3.368
			c0.156,0.349,0.602,0.459,0.905,0.226c1.26-0.968,1.824-1.502,3.432-2.693c0.989-0.733,3.277-2.339,4.642-3.351
			c1.336-0.99,0.543-2.495-0.106-2.202c-2.913,1.309-4.592,1.452-5.929,1.325C225.489,321.669,225.248,321.739,225.054,321.883z"/>
		<g>
			<path style="fill:#407BFF;" d="M155.199,227.382c-3.886-0.24-9.631,8.166-9.631,8.166l5.665,7.729c0,0,3.43-1.737,5.996-6.033
				C159.918,232.743,159.173,227.627,155.199,227.382z"/>
			<path style="opacity:0.6;fill:#FAFAFA;" d="M155.199,227.382c-3.886-0.24-9.631,8.166-9.631,8.166l5.665,7.729
				c0,0,3.43-1.737,5.996-6.033C159.918,232.743,159.173,227.627,155.199,227.382z"/>
		</g>
		<path style="opacity:0.2;" d="M156.301,235.136c-2.555,1.372-4.252,4.745-5.319,7.798l0.249,0.344c0,0,3.433-1.74,6-6.034
			c0.16-0.269,0.309-0.541,0.446-0.811L156.301,235.136z"/>
		<g>
			<path style="fill:#407BFF;" d="M178.223,226.758c0,0,2.322,5.858-1.749,35.991c-6.526,0-18.484,0-21.659,0
				c-0.149-3.325,1.94-19.544-1.267-35.21c0,0,3.713-0.745,7.251-0.916c2.768-0.133,12.01-1.999,14.443-1.777
				C178.449,225.139,178.223,226.758,178.223,226.758z"/>
			<path style="opacity:0.6;fill:#FAFAFA;" d="M178.73,240.05c-0.26,5.33-0.91,12.67-2.26,22.7h-21.65
				c-0.15-3.33,1.94-19.55-1.27-35.21c0,0,3.71-0.75,7.25-0.92c2.77-0.13,12.01-2,14.44-1.77c3.21,0.29,2.98,1.91,2.98,1.91
				s0.49,1.23,0.62,5.46C178.91,234.15,178.9,236.7,178.73,240.05z"/>
		</g>
		<path style="fill:#263238;" d="M175.593,260.995l4.274,10.036c0,0,20.733,2.601,26.615,9.727
			c5.881,7.126,16.958,36.066,16.958,36.066l-5.54,4.705c0,0-15.902-29.241-20.346-32.764c-4.444-3.523-29.782-3.523-35.442-5.633
			c-5.661-2.11-7.296-20.383-7.296-20.383L175.593,260.995z"/>
		<polygon style="fill:#407BFF;" points="216.758,320.953 223.44,315.835 224.297,317.483 217.9,322.526 		"/>
		<polygon style="opacity:0.3;" points="216.758,320.953 223.44,315.835 224.297,317.483 217.9,322.526 		"/>
		<path style="fill:#263238;" d="M171.025,208.495c0,0-0.259-5.935-3.395-6.133c-3.136-0.198-5.615,2.637-5.615,2.637
			s-0.751-1.127-2.531-1.223c-1.78-0.096-4.887,2.937-4.887,2.937s3.872-2.383,5.501-1.29c0,0-4.388,1.215-5.501,3.989
			c-1.113,2.774-2.299,3.763-2.299,3.763h2.299l-1.508,2.572c0,0,3.183,3.076,5.58,2.56l-0.767,1.462c0,0,4.712,1.718,6.629,1.188
			c1.918-0.53,0.096-10.089,0.096-10.089L171.025,208.495z"/>
		<path style="opacity:0.2;" d="M178.73,240.05c-3.93-2.67-3.87-8.82-3.87-8.82l3.98,0.99C178.91,234.15,178.9,236.7,178.73,240.05z
			"/>
		<g>
			<polygon style="fill:#407BFF;" points="142.484,270.411 115.768,265.923 108.861,286.484 113.281,294.506 142.437,298.347 
				148.35,275.949 			"/>
			<polygon style="opacity:0.4;" points="108.863,286.482 110.581,289.61 110.967,290.303 113.281,294.506 142.44,298.345 
				148.347,275.949 145.845,273.586 145.074,272.857 142.486,270.41 115.768,265.922 			"/>
			<polygon style="opacity:0.2;fill:#FFFFFF;" points="148.347,275.949 121.907,271.842 115.768,265.922 142.486,270.41 			"/>
			<polygon style="opacity:0.1;fill:#FFFFFF;" points="121.907,271.842 113.281,294.506 108.863,286.482 115.768,265.922 			"/>
			<g>
				<polygon style="fill:#263238;" points="110.581,289.61 110.967,290.303 118.956,269.066 145.845,273.586 145.074,272.857 
					118.484,268.601 				"/>
			</g>
			<polygon style="fill:#263238;" points="136.824,271.63 135.474,270.382 128.738,269.159 129.917,270.517 			"/>
			<path style="fill:#263238;" d="M139.423,272.131c0,0,0.312-7.063,0.116-7.532c-0.196-0.469-9.661-2.017-10.365-2.152
				c-0.704-0.135-3.836,6.729-3.836,6.729l0.54,0.83l1.791,0.239c0,0,2.268-5.929,2.502-6.072c0.233-0.142,7.522,1.104,7.72,1.261
				c0.198,0.158-0.585,5.542-0.585,5.542l0.616,0.885L139.423,272.131z"/>
			<g>
				<g>
					<path style="fill:#407BFF;" d="M110.673,283.353l1.943,2.571l0.191-0.511l1.511-4.013l0.182-0.483l0.323-0.859
						c0,0-0.575,0.645-1.354,1.375C112.621,282.223,111.533,283.11,110.673,283.353z"/>
					<path style="opacity:0.2;fill:#FFFFFF;" d="M111.317,283.544l1.49,1.87l1.511-4.013l0.182-0.483
						C113.8,281.774,112.534,283.152,111.317,283.544z"/>
					<path style="opacity:0.2;" d="M113.47,281.434c0.292-0.025,0.583-0.031,0.849-0.033l0.505-1.342
						C114.823,280.059,114.248,280.704,113.47,281.434z"/>
				</g>
				<path style="fill:#407BFF;" d="M109.941,278.316l-0.37,3.622c0,0,2.289-1.134,4.779-0.634l0.188-0.5l1.168-3.111l0.124-0.325
					C115.829,277.368,112.552,276.984,109.941,278.316z"/>
				<path style="fill:#407BFF;" d="M113.736,272.178c0,0,1.061,2.165,2.728,3.664l0.135-0.378l0.36-0.992l0.599-1.651l0.291-0.8
					l0.082-0.232c0,0-0.832-1.259-1.242-2.306L113.736,272.178z"/>
				<path style="fill:#407BFF;" d="M119.865,267.523c0,0,0.735,1.19,0.835,1.833l0.423,0.074l0.58,0.094l0.924,0.161l0.89,0.15
					l0.317,0.052c0,0,0.116-1.909-1.461-3.763L119.865,267.523z"/>
				<path style="opacity:0.2;fill:#FFFFFF;" d="M120.421,267.616c0,0,0.537,1.043,0.702,1.815l0.58,0.094
					c-0.098-0.145-0.13-0.338-0.07-0.521c0.107-0.33,0.462-0.511,0.793-0.404c0.33,0.107,0.511,0.462,0.404,0.793
					c-0.039,0.12-0.11,0.223-0.202,0.293l0.89,0.15c-0.07-0.772-0.314-2.351-1.168-3.252L120.421,267.616z"/>
				<path style="opacity:0.2;fill:#FFFFFF;" d="M110.184,278.458l-0.229,2.936c0,0,2.555-0.884,4.582-0.59l1.168-3.111
					C114.617,277.573,112.31,277.479,110.184,278.458z M113.394,278.215c0.568-0.042,1.048,0.284,1.08,0.729
					c0.032,0.445-0.405,0.839-0.965,0.877c-0.568,0.042-1.053-0.286-1.086-0.731C112.391,278.645,112.828,278.252,113.394,278.215z"
					/>
				<path style="opacity:0.2;fill:#FFFFFF;" d="M114.248,272.345c0,0,1.346,2.258,2.351,3.119l0.36-0.992
					c-0.412-0.147-0.628-0.626-0.48-1.082c0.15-0.462,0.62-0.725,1.041-0.588c0.011,0.004,0.029,0.009,0.038,0.019l0.291-0.8
					c-0.4-0.457-0.935-1.173-1.223-1.897L114.248,272.345z"/>
			</g>
		</g>
		<path style="fill:#E4897B;" d="M203.734,207.858l1.538-2.568l3.397,3.218c0,0-1.379,1.828-3.341,1.813L203.734,207.858z"/>
		<polygon style="fill:#E4897B;" points="207.645,201.851 210.058,205.236 208.668,208.508 205.271,205.29 		"/>
		<g>
			<path style="fill:#DC897C;" d="M177.124,225.36c2.677-0.558,5.533-1.272,8.194-2.116c2.653-0.892,5.296-1.859,7.424-3.242
				c0.294-0.178,0.381-0.277,0.611-0.443l0.689-0.635c0.48-0.461,0.963-0.966,1.446-1.487c0.955-1.059,1.928-2.15,2.876-3.269
				c1.923-2.222,3.808-4.53,5.743-6.779l2.532,1.683c-1.387,2.708-2.931,5.285-4.556,7.86c-0.837,1.271-1.683,2.546-2.621,3.793
				c-0.473,0.625-0.962,1.252-1.5,1.882c-0.262,0.317-0.59,0.637-0.886,0.953c-0.338,0.313-0.796,0.733-1.127,0.962
				c-2.78,2.035-5.696,3.402-8.669,4.461c-2.99,1.071-5.921,1.871-9.106,2.425L177.124,225.36z"/>
		</g>
		<g>
			<path style="fill:#407BFF;" d="M175.825,234.099c4.219,3.654,13.468-2.609,13.468-2.609l-3.689-9.11c0,0-5.246,0.547-9.99,2.152
				C169.754,226.516,172.613,231.317,175.825,234.099z"/>
			<path style="opacity:0.6;fill:#FAFAFA;" d="M175.825,234.099c4.219,3.654,13.468-2.609,13.468-2.609l-3.689-9.11
				c0,0-5.246,0.547-9.99,2.152C169.754,226.516,172.613,231.317,175.825,234.099z"/>
		</g>
	</g>
</g>
</svg>
